<?xml version="1.0" encoding="UTF-8"?>
<svg id="_Слой_2" data-name="Слой 2" xmlns="http://www.w3.org/2000/svg" viewBox="0 0 684.05 789.68">
  <defs>
    <style>
      .cls-1 {
        fill: #f2a922;
      }
    </style>
  </defs>
  <g id="_Слой_1-2" data-name="Слой 1">
    <g>
      <polygon class="cls-1" points="684.05 680.79 318.75 644.26 33.78 608.11 3.06 542.25 155.09 464.89 198.66 416.83 162.83 375.37 177.86 302.27 350.73 345.52 339.08 304.86 336.54 278.07 292.36 232.1 266.62 215.68 262.03 233.64 269.99 239.72 263.64 259.54 251.55 244.08 249.23 226.35 257.73 208.71 247.61 202.61 224.47 217.32 227.9 226.59 217.79 241.06 210.72 225.75 213.72 208.59 249.76 190.35 262.33 196.88 267.59 189.51 283.18 191.15 318.36 140.64 290.35 135.74 282.74 115.28 338.77 102.35 364.63 121.66 370.68 146.9 365.44 166.56 396.57 139.16 388.14 133.72 403.56 113.68 419.14 123.62 415.83 142.53 421.27 237.32 443.8 283.84 477.76 421.87 450.01 398.97 432.47 305.32 412.35 321.29 421.91 347.14 390.12 377.77 523.45 510.13 684.05 680.79"/>
      <g>
        <path d="m120.13,105.94l-4.93-9.01,7.66-4.19,4.93,9.01-1.93,1.06-3.94-7.21-3.8,2.08,3.94,7.21-1.93,1.06Z"/>
        <path d="m130.32,100.45l-4.57-9.2,6.83-3.39.91,1.84-4.86,2.41.88,1.77,3.81-1.89.88,1.77-3.81,1.89.98,1.97,4.99-2.48.91,1.84-6.96,3.46Z"/>
        <path d="m141,95.27l-3.43-7.46-2.67,1.22-.86-1.87,7.33-3.37.86,1.87-2.67,1.22,3.43,7.46-2,.92Z"/>
        <path d="m147.34,92.39l-4.03-9.44,7.02-2.99.81,1.89-4.99,2.13.78,1.82,3.91-1.67.78,1.82-3.91,1.67.86,2.02,5.13-2.19.81,1.89-7.15,3.05Z"/>
        <path d="m156.56,88.51l-3.77-9.55,4.03-1.59c1.01-.4,1.95-.42,2.82-.07.87.35,1.49.99,1.86,1.93.37.94.36,1.83-.04,2.68-.39.85-1.1,1.47-2.11,1.87l-1.98.78,1.24,3.14-2.05.81Zm.05-5.86l1.91-.75c.41-.16.69-.41.85-.75s.16-.7,0-1.08c-.15-.38-.4-.64-.74-.79s-.72-.13-1.13.03l-1.91.75,1.02,2.59Z"/>
        <path d="m166.05,84.8l-3.52-9.64,6.68-2.44.7,1.93-4.62,1.69.6,1.65,2.14-.78c.98-.36,1.88-.36,2.71-.01.82.35,1.39.96,1.71,1.83s.28,1.71-.12,2.5c-.4.8-1.09,1.38-2.08,1.73l-4.2,1.54Zm1.36-2.68l2.07-.76c.38-.14.64-.35.79-.64s.17-.59.05-.92-.33-.54-.63-.67c-.3-.12-.64-.12-1.02.02l-2.07.75.8,2.2Z"/>
        <path d="m175.37,81.35l-.63-1.88c.11,0,.19,0,.26-.01.2-.02.43-.07.69-.16.67-.23,1.06-.74,1.18-1.56l.05-.33-5.84-5.38,2.43-.82,3.85,3.82.39-5.26,2.43-.82-1.05,8.79c-.21,1.77-1.04,2.91-2.49,3.4-.32.11-.62.17-.88.19-.03,0-.07,0-.12,0s-.1,0-.14,0c-.04,0-.08,0-.11,0Z"/>
        <path d="m184.81,78.27l-3.06-9.8,4.13-1.29c1.04-.32,1.97-.28,2.82.14s1.41,1.1,1.71,2.06c.3.96.22,1.85-.24,2.67-.46.82-1.2,1.39-2.24,1.71l-2.03.63,1,3.22-2.1.66Zm.48-5.84l1.96-.61c.42-.13.72-.36.9-.69s.21-.69.09-1.08-.35-.67-.68-.84c-.33-.17-.71-.19-1.13-.05l-1.96.61.83,2.66Z"/>
        <path d="m194.54,75.28l-2.84-9.87,6.7-1.92.57,1.97-4.58,1.32,2.27,7.89-2.11.61Z"/>
        <path d="m204.09,68.16l-.42-1.63,9.74-2.48.42,1.63-9.74,2.48Z"/>
        <path d="m218.81,66.98l1.12-1.74c.24.21.53.39.89.56.77.33,1.54.42,2.29.25.77-.17,1.39-.53,1.84-1.09.45-.56.7-1.18.74-1.87l-4.37.95-.42-1.94,4.37-.95c-.32-.58-.8-1.03-1.44-1.34-.64-.31-1.35-.38-2.13-.21-.74.16-1.38.55-1.91,1.17-.25.29-.44.59-.57.88l-1.74-1.12c.22-.45.5-.86.84-1.23.79-.87,1.77-1.44,2.95-1.69,1.54-.33,2.94-.11,4.21.69,1.27.8,2.06,1.91,2.38,3.36s.06,2.79-.76,4.04c-.82,1.25-2.01,2.04-3.54,2.38-1.18.26-2.32.16-3.44-.3-.49-.21-.92-.47-1.29-.77Z"/>
        <path d="m232.74,65.92l-1.55-8.07-2.88.56-.39-2.02,7.92-1.53.39,2.02-2.88.55,1.55,8.07-2.16.42Z"/>
        <path d="m240.01,63.18c-1.23-.86-1.96-2.01-2.2-3.47-.24-1.46.08-2.79.96-4s2.1-1.94,3.66-2.2c1.55-.26,2.94.04,4.17.9,1.23.86,1.96,2.01,2.2,3.47.24,1.46-.08,2.79-.97,4s-2.1,1.94-3.66,2.2c-1.55.26-2.94-.04-4.17-.9Zm.61-6.31c-.53.74-.71,1.56-.57,2.47.15.91.59,1.62,1.33,2.15.74.53,1.56.72,2.47.57.91-.15,1.62-.59,2.15-1.33.53-.74.72-1.56.57-2.47-.15-.91-.59-1.62-1.33-2.15s-1.56-.72-2.47-.57c-.91.15-1.62.59-2.15,1.33Z"/>
        <path d="m255.14,62.18l-1.28-10.19,2.18-.27.55,4.37,3.38-4.86,2.62-.33-3.25,4.7,4.83,5.46-2.55.32-3.53-3.99-1.14,1.55.38,2.98-2.18.27Z"/>
        <path d="m265.35,60.86l-.19-1.97c.1.03.19.05.26.05.2.03.43.03.71,0,.7-.07,1.2-.49,1.5-1.25l.12-.31-4.47-6.56,2.55-.25,2.88,4.6,1.57-5.03,2.55-.25-3.02,8.33c-.6,1.68-1.67,2.59-3.19,2.74-.34.03-.64.03-.9-.02-.03,0-.07-.01-.12-.02-.05-.01-.1-.02-.14-.03-.04-.01-.08-.02-.11-.03Z"/>
        <path d="m273.29,60.14l-.15-2.12c.09.03.17.05.24.06.17.04.34.05.5.04.28-.02.52-.1.7-.24.18-.14.35-.39.49-.75.15-.36.24-.88.27-1.58.04-.69.02-1.56-.05-2.61l-.22-3.22,7.39-.51.71,10.24-2.19.15-.57-8.19-3,.21.08,1.17c.1,1.41.1,2.6,0,3.58s-.29,1.74-.58,2.29c-.29.54-.62.94-1,1.19-.38.25-.83.39-1.36.42-.34.02-.64,0-.9-.04l-.36-.09Z"/>
        <path d="m286.03,59.32l-.37-10.26,2.2-.08.12,3.37,2.13-.08c1.08-.04,1.98.25,2.68.87.7.62,1.07,1.43,1.11,2.44s-.27,1.84-.93,2.51c-.66.67-1.53,1.02-2.61,1.06l-4.32.16Zm2.12-2.13l2.05-.07c.44-.02.79-.16,1.05-.43.26-.27.38-.61.37-1.02-.01-.41-.16-.74-.44-.99-.28-.25-.64-.37-1.08-.35l-2.05.07.1,2.79Z"/>
        <path d="m297.17,59l-.07-8.21-2.93.03-.02-2.05,8.07-.07.02,2.05-2.93.03.07,8.21-2.2.02Z"/>
        <path d="m303.94,58.9l.04-1.98c.1.04.18.07.25.08.19.05.43.08.7.09.7.02,1.25-.34,1.64-1.06l.15-.29-3.66-7.05,2.57.06,2.31,4.91,2.16-4.81,2.57.06-3.99,7.91c-.8,1.6-1.97,2.38-3.5,2.34-.34,0-.64-.05-.89-.12-.03-.01-.07-.02-.12-.04-.05-.02-.09-.03-.13-.05s-.07-.03-.1-.04Z"/>
        <path d="m313.81,59.23l.59-10.25,4.32.25c1.08.06,1.95.43,2.59,1.12.64.68.93,1.53.88,2.53s-.44,1.81-1.16,2.42c-.72.61-1.61.88-2.7.82l-2.12-.12-.19,3.37-2.2-.13Zm2.51-5.29l2.05.12c.44.03.8-.08,1.08-.33.28-.24.44-.57.46-.98.02-.41-.09-.75-.35-1.03-.25-.27-.6-.42-1.04-.45l-2.05-.12-.16,2.78Z"/>
        <path d="m321.86,59.68l4.9-9.86,2.48.23,2.99,10.59-2.34-.22-.66-2.42-3.94-.37-1.09,2.26-2.34-.22Zm4.35-3.94l2.48.23-.9-3.47h-.06s-1.52,3.24-1.52,3.24Z"/>
        <path d="m334.96,64.11l6.22-12.76,1.82.25-6.23,12.76-1.82-.25Z"/>
        <path d="m339.15,64.68l6.45-12.64,1.81.29-6.45,12.64-1.81-.29Z"/>
        <path d="m350.56,63.45l2.15-10.04,8.53,1.83-2.15,10.04-2.15-.46,1.72-8.03-4.23-.91-1.72,8.03-2.15-.46Z"/>
        <path d="m361.83,65.96l2.66-9.92,7.37,1.97-.53,1.98-5.24-1.41-.51,1.91,4.11,1.1-.51,1.91-4.11-1.1-.57,2.13,5.38,1.44-.53,1.98-7.51-2.01Z"/>
        <path d="m373.23,69.19l2.5-7.83-2.79-.89.63-1.96,7.68,2.45-.63,1.96-2.79-.89-2.5,7.83-2.1-.67Z"/>
        <path d="m379.79,71.35l3.61-9.61,7.14,2.68-.72,1.92-5.08-1.91-.7,1.85,3.98,1.49-.7,1.85-3.98-1.49-.77,2.06,5.22,1.96-.72,1.92-7.28-2.73Z"/>
        <path d="m389.08,74.91l4.14-9.4,3.96,1.74c.99.44,1.67,1.09,2.03,1.95.36.86.34,1.76-.07,2.68s-1.05,1.54-1.93,1.86c-.88.32-1.82.26-2.81-.18l-1.95-.86-1.36,3.09-2.01-.89Zm4.2-4.08l1.88.83c.4.18.78.2,1.13.07s.61-.38.77-.76c.17-.38.18-.74.04-1.08-.14-.35-.41-.61-.82-.79l-1.88-.83-1.12,2.55Z"/>
        <path d="m398.31,79.06l4.69-9.14,6.33,3.25-.94,1.83-4.37-2.24-.8,1.57,2.02,1.04c.93.48,1.55,1.14,1.85,1.98.3.84.24,1.67-.19,2.5s-1.07,1.36-1.92,1.61c-.86.25-1.75.13-2.68-.35l-3.98-2.04Zm2.89-.82l1.96,1.01c.36.18.69.23,1.01.14.31-.09.55-.28.71-.59s.18-.61.07-.91c-.11-.31-.35-.55-.7-.73l-1.96-1-1.07,2.09Z"/>
        <path d="m407.06,83.56l1.01-1.7c.06.08.12.15.18.19.14.14.33.28.57.42.61.36,1.26.32,1.95-.13l.28-.18.26-7.94,2.21,1.31-.39,5.41,4.24-3.13,2.21,1.31-7.35,4.94c-1.48,1-2.88,1.11-4.2.33-.3-.17-.53-.36-.72-.54-.02-.02-.05-.05-.08-.09-.03-.04-.07-.07-.09-.11s-.05-.06-.07-.08Z"/>
        <path d="m415.42,88.67l5.76-8.5,3.58,2.43c.9.61,1.45,1.37,1.65,2.29.2.92.02,1.79-.55,2.62-.57.83-1.31,1.33-2.24,1.48s-1.84-.08-2.73-.68l-1.76-1.19-1.89,2.79-1.82-1.24Zm4.87-3.26l1.7,1.15c.36.25.73.34,1.1.28.37-.06.67-.27.9-.61s.31-.69.23-1.06c-.08-.37-.3-.67-.66-.92l-1.7-1.15-1.57,2.31Z"/>
        <path d="m423.75,94.45l6.27-8.13,5.52,4.26-1.25,1.63-3.78-2.91-5.02,6.5-1.74-1.34Z"/>
        <path d="m435.17,98.07l1.14-1.24,7.41,6.79-1.14,1.24-7.41-6.79Z"/>
        <path d="m444.18,109.71l2.07.17c-.07.31-.1.66-.08,1.05.07.84.35,1.55.85,2.14.51.6,1.12.98,1.83,1.11s1.37.06,2-.23l-2.89-3.41,1.51-1.28,2.89,3.41c.36-.55.53-1.19.5-1.9-.03-.71-.3-1.37-.81-1.98-.49-.58-1.13-.96-1.92-1.14-.38-.08-.72-.11-1.04-.1l.17-2.07c.5-.01,1,.04,1.49.16,1.14.29,2.1.89,2.88,1.81,1.02,1.2,1.47,2.55,1.37,4.04s-.72,2.72-1.85,3.67-2.44,1.36-3.92,1.22c-1.49-.14-2.75-.81-3.76-2.01-.78-.92-1.23-1.98-1.35-3.18-.04-.53-.02-1.03.07-1.5Z"/>
        <path d="m451.04,121.55l7-4.29-1.53-2.5,1.75-1.07,4.21,6.88-1.75,1.07-1.53-2.5-7,4.29-1.15-1.88Z"/>
        <path d="m455.99,127.41c.51-1.41,1.44-2.42,2.78-3.03,1.34-.61,2.71-.65,4.11-.1s2.42,1.53,3.07,2.96c.65,1.43.72,2.85.21,4.26-.51,1.41-1.44,2.42-2.78,3.03-1.34.61-2.71.65-4.11.1-1.39-.54-2.42-1.53-3.07-2.96-.65-1.43-.72-2.85-.21-4.26Zm6.25-1.05c-.85-.32-1.69-.29-2.53.09-.84.38-1.41.99-1.73,1.84-.32.85-.29,1.69.09,2.53.38.84.99,1.41,1.84,1.73.85.32,1.69.29,2.53-.09s1.41-.99,1.73-1.84c.32-.85.29-1.69-.09-2.53-.38-.84-.99-1.41-1.84-1.73Z"/>
        <path d="m460.46,141.68l9.84-2.93.63,2.11-6.33,1.89,7.75,2.89.57,1.9-9.84,2.93-.63-2.11,6.33-1.89-7.75-2.89-.57-1.9Z"/>
        <path d="m468.58,160.1l-1.13,1.74c-.43-.22-.84-.51-1.23-.86-.88-.83-1.44-1.84-1.69-3.01-.33-1.54-.09-2.94.71-4.21s1.92-2.05,3.37-2.36c1.44-.31,2.79-.05,4.04.78,1.24.83,2.03,2.01,2.36,3.56.25,1.18.14,2.3-.33,3.38-.2.46-.46.89-.78,1.27l-1.74-1.13c.21-.24.39-.54.56-.88.35-.73.44-1.47.28-2.22-.19-.9-.67-1.6-1.43-2.09s-1.59-.64-2.49-.45c-.9.19-1.6.67-2.09,1.43-.49.76-.64,1.59-.45,2.49.16.76.55,1.42,1.17,1.99.29.26.58.45.87.58Z"/>
        <path d="m466.18,165.86l8.12-1.21-.43-2.9,2.03-.3,1.19,7.98-2.03.3-.43-2.9-8.13,1.21-.32-2.18Z"/>
        <path d="m468.56,173.25c.95-1.16,2.16-1.8,3.63-1.93,1.47-.13,2.77.29,3.91,1.27,1.14.98,1.77,2.25,1.91,3.82.14,1.57-.27,2.93-1.22,4.09-.95,1.16-2.16,1.8-3.63,1.93-1.47.13-2.78-.3-3.91-1.27s-1.77-2.25-1.91-3.82c-.14-1.57.27-2.93,1.22-4.09Zm6.24,1.09c-.69-.58-1.5-.83-2.41-.75-.92.08-1.67.47-2.25,1.16-.58.69-.83,1.5-.75,2.41.08.92.47,1.67,1.16,2.25s1.5.83,2.41.75c.92-.08,1.66-.47,2.25-1.16.58-.69.83-1.5.75-2.41s-.47-1.66-1.16-2.25Z"/>
        <path d="m468.1,184.99l10.27-.26.11,4.33c.03,1.08-.27,1.98-.9,2.67-.63.7-1.45,1.06-2.45,1.08-1.01.03-1.84-.29-2.5-.96-.66-.66-1.01-1.54-1.03-2.62l-.05-2.13-3.37.08-.06-2.2Zm5.48,2.06l.05,2.05c.01.44.15.79.42,1.05.27.26.6.39,1.01.38.41-.01.74-.15.99-.43s.37-.63.36-1.07l-.05-2.05-2.79.07Z"/>
        <path d="m468.3,195.13l10.26.35-.08,2.2-6.6-.23,6.43,5.21-.07,1.98-10.26-.35.08-2.2,6.6.23-6.43-5.21.07-1.98Z"/>
        <path d="m467.87,206.19l3.6,2.48c.18-.33.41-.6.7-.82.64-.53,1.46-.74,2.46-.65,1.03.1,1.83.5,2.4,1.21.57.71.8,1.61.7,2.7l-.43,4.53-10.22-.97.21-2.19,3.36.32.19-2.04-3.19-2.14.23-2.41Zm5.02,4.53l-.21,2.26,2.77.26.21-2.26c.04-.41-.06-.76-.29-1.04-.23-.28-.55-.44-.96-.48s-.75.06-1.04.29-.44.55-.48.96Z"/>
        <path d="m463.4,218.94l12.63,6.49-.29,1.81-12.63-6.49.29-1.81Z"/>
        <path d="m462.75,223.09l12.46,6.79-.33,1.8-12.46-6.79.33-1.8Z"/>
        <path d="m463.65,234.48l9.93,2.6-2.21,8.44-9.93-2.6.56-2.13,7.95,2.08,1.1-4.19-7.94-2.08.56-2.13Z"/>
        <path d="m460.61,245.6l9.73,3.27-2.43,7.23-1.95-.65,1.73-5.15-1.88-.63-1.35,4.03-1.88-.63,1.35-4.03-2.09-.7-1.77,5.28-1.95-.65,2.48-7.37Z"/>
        <path d="m456.65,256.69l7.61,3.1,1.11-2.72,1.9.77-3.04,7.47-1.9-.77,1.11-2.72-7.61-3.1.83-2.04Z"/>
        <path d="m453.99,263.04l9.23,4.51-3.35,6.85-1.85-.9,2.38-4.88-1.78-.87-1.87,3.82-1.78-.87,1.87-3.82-1.98-.97-2.45,5.01-1.85-.9,3.41-6.99Z"/>
        <path d="m449.53,271.86l8.93,5.08-2.14,3.76c-.54.94-1.25,1.55-2.15,1.82-.9.27-1.78.16-2.66-.34-.88-.5-1.43-1.2-1.65-2.11-.22-.91-.07-1.84.47-2.78l1.05-1.85-2.93-1.67,1.09-1.91Zm3.63,4.6l-1.01,1.79c-.22.38-.28.75-.19,1.12.09.36.32.64.67.85s.71.25,1.07.15.65-.35.86-.73l1.02-1.79-2.42-1.38Z"/>
        <path d="m444.44,280.81l8.92,5.08-3.52,6.18-1.78-1.02,2.43-4.27-1.53-.87-1.13,1.98c-.52.91-1.2,1.49-2.05,1.76-.85.26-1.68.16-2.49-.3s-1.32-1.12-1.53-1.99-.06-1.76.46-2.67l2.21-3.89Zm.7,2.93l-1.09,1.91c-.2.35-.26.68-.19,1,.07.32.26.56.55.73s.6.2.91.1c.31-.1.56-.32.76-.67l1.09-1.91-2.04-1.16Z"/>
        <path d="m439.57,289.51l1.72.98c-.08.07-.14.13-.19.18-.14.15-.28.34-.41.57-.35.61-.3,1.26.15,1.95l.18.27,7.94.15-1.28,2.23-5.42-.31,3.19,4.2-1.28,2.23-5.04-7.28c-1.02-1.46-1.15-2.86-.39-4.19.17-.3.35-.54.53-.73.02-.02.05-.05.09-.08.04-.04.07-.07.1-.09.03-.03.06-.05.08-.07Z"/>
        <path d="m434.55,298.11l8.88,5.16-2.17,3.74c-.55.94-1.27,1.54-2.17,1.8-.9.26-1.79.14-2.66-.36-.87-.51-1.41-1.21-1.63-2.13-.22-.91-.05-1.84.49-2.78l1.07-1.84-2.92-1.69,1.11-1.9Zm3.59,4.63l-1.03,1.77c-.22.38-.29.75-.2,1.11.09.36.31.65.67.85.36.21.71.26,1.07.15.36-.1.65-.34.87-.72l1.03-1.78-2.41-1.4Z"/>
        <path d="m429.39,306.97l8.84,5.23-3.55,6-1.77-1.05,2.43-4.1-7.07-4.18,1.12-1.89Z"/>
        <path d="m427.39,318.66l1.44.88-5.25,8.57-1.44-.88,5.25-8.57Z"/>
        <path d="m417.67,329.81l.44,2.03c-.32.02-.66.1-1.02.23-.78.31-1.38.79-1.8,1.44-.43.67-.61,1.36-.53,2.07s.34,1.33.8,1.85l2.42-3.76,1.66,1.07-2.43,3.76c.64.19,1.29.17,1.97-.07s1.23-.68,1.66-1.35c.41-.64.59-1.36.53-2.17-.03-.38-.1-.72-.21-1.03l2.03-.44c.16.47.25.96.27,1.47.05,1.18-.24,2.27-.89,3.28-.85,1.32-2.01,2.15-3.47,2.48-1.46.33-2.81.1-4.05-.7-1.24-.8-2.01-1.94-2.31-3.4-.3-1.47-.02-2.86.83-4.19.65-1.01,1.54-1.75,2.65-2.22.5-.19.98-.32,1.46-.37Z"/>
        <path d="m408.58,340.4l6.82,4.58,1.64-2.43,1.7,1.14-4.5,6.7-1.7-1.15,1.64-2.44-6.82-4.58,1.23-1.83Z"/>
        <path d="m405.4,347.5c1.47-.27,2.81.02,4.02.87,1.21.85,1.93,2.02,2.16,3.5.24,1.48-.1,2.86-1.01,4.15s-2.1,2.06-3.57,2.33c-1.47.27-2.81-.02-4.02-.88-1.2-.85-1.93-2.02-2.16-3.5-.24-1.48.1-2.86,1.01-4.15.91-1.29,2.1-2.06,3.57-2.33Zm4.06,4.87c-.15-.89-.6-1.61-1.35-2.14-.75-.53-1.57-.72-2.47-.57-.89.15-1.6.6-2.14,1.35-.53.75-.72,1.57-.57,2.47.15.89.6,1.6,1.36,2.14.75.53,1.57.72,2.47.57.89-.15,1.6-.6,2.13-1.36.53-.75.72-1.57.57-2.46Z"/>
        <path d="m395.48,358.96l8.13,6.27-5.33,6.91-8.13-6.27,1.34-1.74,6.5,5.02,2.64-3.43-6.5-5.02,1.34-1.74Z"/>
        <path d="m388.36,368.1l7.92,6.54-2.76,3.34c-.69.84-1.5,1.31-2.43,1.42-.93.11-1.78-.15-2.56-.79s-1.2-1.43-1.26-2.36.25-1.82.94-2.66l1.35-1.64-2.6-2.15,1.4-1.7Zm2.78,5.15l-1.31,1.58c-.28.34-.4.7-.38,1.07.03.37.2.69.52.95s.66.37,1.03.33c.37-.04.7-.23.98-.57l1.31-1.58-2.15-1.77Z"/>
        <path d="m381.84,375.94l7.66,6.84-1.47,1.64-4.92-4.4,1.6,8.12-1.32,1.48-7.66-6.84,1.47-1.64,4.92,4.4-1.6-8.12,1.32-1.48Z"/>
        <path d="m373.8,384.83l7.37,7.15-3.01,3.1c-.76.78-1.6,1.19-2.54,1.23-.94.04-1.77-.29-2.49-1-.72-.7-1.08-1.52-1.07-2.46.01-.94.39-1.79,1.15-2.57l1.48-1.53-2.42-2.35,1.53-1.58Zm2.36,5.36l-1.43,1.47c-.31.32-.46.66-.46,1.03s.15.7.44.99c.29.29.63.42,1,.41.37-.01.71-.18,1.02-.49l1.43-1.47-2-1.94Z"/>
        <path d="m366.93,393.73c1.5.03,2.75.59,3.76,1.66,1.01,1.08,1.48,2.36,1.42,3.86-.07,1.49-.67,2.78-1.82,3.86-1.15,1.08-2.47,1.6-3.97,1.57-1.5-.03-2.75-.59-3.76-1.66-1.01-1.08-1.48-2.36-1.42-3.86.07-1.49.67-2.78,1.82-3.86,1.15-1.08,2.47-1.6,3.97-1.57Zm3,5.58c.03-.9-.27-1.69-.9-2.36-.63-.67-1.4-1.02-2.3-1.05-.91-.03-1.69.27-2.36.9-.67.63-1.02,1.4-1.05,2.3-.03.91.27,1.69.9,2.36.63.67,1.39,1.02,2.3,1.05.91.03,1.69-.27,2.36-.9s1.02-1.4,1.05-2.3Z"/>
        <path d="m357.33,398.05l2.65,3.14-.45.38c-.02.4.03.87.14,1.42.31,1.2.93,2.35,1.85,3.44l2.07,2.45-5.43,4.59-5.3-6.27-.95.8-2.65-3.14,1.68-1.42,1.33,1.57,4.7-3.98-1.33-1.57,1.68-1.42Zm.41,5.03l-3.19,2.7,3.98,4.7,2.07-1.75-.76-.9c-.94-1.11-1.57-2.23-1.9-3.39-.14-.53-.21-.99-.2-1.37Z"/>
        <path d="m350.15,406.74l3.15,10.55-1.97,1.53-9.42-5.7,1.86-1.44,2.13,1.32,3.13-2.42-.74-2.39,1.86-1.44Zm-.48,5.85l-1.97,1.53,3.03,1.92.05-.03-1.1-3.41Z"/>
        <path d="m337.52,412.38l4.04,13.61-1.51,1.04-4.04-13.61,1.51-1.04Z"/>
        <path d="m334.03,414.81l3.81,13.67-1.53,1.02-3.81-13.67,1.53-1.02Z"/>
        <path d="m326.45,423.45l5.25,8.82-7.5,4.46-5.25-8.82,1.89-1.13,4.2,7.06,3.72-2.21-4.2-7.06,1.89-1.13Z"/>
        <path d="m316.48,429.29l4.86,9.04-6.72,3.61-.97-1.81,4.78-2.57-.94-1.74-3.75,2.01-.94-1.74,3.75-2.02-1.04-1.94-4.91,2.64-.97-1.81,6.85-3.68Z"/>
        <path d="m305.98,434.78l3.61,7.38,2.64-1.29.9,1.84-7.25,3.54-.9-1.84,2.64-1.29-3.61-7.38,1.98-.97Z"/>
        <path d="m299.7,437.8l4.15,9.39-6.98,3.08-.83-1.88,4.97-2.19-.8-1.81-3.89,1.72-.8-1.81,3.89-1.72-.89-2.01-5.1,2.25-.83-1.88,7.11-3.14Z"/>
        <path d="m290.61,441.74l3.74,9.56-4.03,1.58c-1.01.4-1.95.42-2.82.06-.87-.35-1.49-1-1.85-1.94s-.35-1.83.05-2.68,1.1-1.47,2.11-1.87l1.98-.78-1.23-3.14,2.05-.8Zm-.07,5.85l-1.91.75c-.41.16-.69.41-.85.75-.16.34-.16.7,0,1.08.15.38.4.65.74.79.35.14.72.14,1.13-.03l1.91-.75-1.02-2.6Z"/>
        <path d="m281.13,445.39l3.32,9.72-6.73,2.3-.66-1.94,4.65-1.59-.57-1.67-2.15.74c-.99.34-1.89.32-2.7-.04-.81-.37-1.37-.99-1.67-1.87-.3-.88-.24-1.71.18-2.5.42-.79,1.12-1.35,2.11-1.69l4.23-1.45Zm-1.42,2.66l-2.08.71c-.38.13-.65.34-.8.62-.15.29-.18.59-.07.91.11.33.32.55.61.68.3.13.64.13,1.02,0l2.08-.71-.76-2.22Z"/>
        <path d="m271.76,448.61l.56,1.9c-.1-.01-.19-.01-.26,0-.2,0-.43.05-.7.13-.68.2-1.09.7-1.24,1.51l-.06.32,5.62,5.61-2.46.72-3.69-3.98-.6,5.24-2.46.72,1.41-8.75c.28-1.76,1.15-2.86,2.63-3.29.33-.1.63-.15.89-.15.03,0,.07,0,.12,0s.1,0,.14,0,.08,0,.11,0Z"/>
        <path d="m262.27,451.27l2.45,9.97-4.2,1.03c-1.05.26-1.99.16-2.8-.31-.81-.47-1.34-1.19-1.58-2.16-.24-.98-.11-1.86.4-2.65.51-.79,1.29-1.31,2.34-1.57l2.07-.51-.8-3.28,2.14-.52Zm-.84,5.79l-2,.49c-.43.11-.74.32-.94.63-.2.32-.25.67-.15,1.07s.31.69.63.88.7.23,1.13.12l2-.49-.67-2.71Z"/>
        <path d="m252.35,453.62l2.01,10.07-6.83,1.36-.4-2.01,4.68-.94-1.61-8.06,2.16-.43Z"/>
        <path d="m242.21,459.89l.23,1.67-9.96,1.35-.23-1.67,9.96-1.35Z"/>
        <path d="m227.47,459.29l-1.37,1.56c-.2-.24-.46-.47-.79-.68-.71-.45-1.46-.64-2.23-.59-.79.05-1.45.32-1.98.8s-.87,1.07-1.02,1.74l4.47-.28.13,1.98-4.47.28c.23.62.63,1.14,1.22,1.54s1.28.58,2.07.53c.76-.05,1.45-.34,2.06-.86.29-.25.52-.51.7-.78l1.56,1.37c-.29.41-.63.77-1.02,1.09-.91.74-1.97,1.15-3.17,1.23-1.57.1-2.92-.34-4.06-1.32-1.13-.98-1.75-2.2-1.84-3.67-.09-1.47.36-2.77,1.36-3.88s2.29-1.72,3.86-1.82c1.2-.08,2.32.2,3.36.82.45.28.84.6,1.16.95Z"/>
        <path d="m213.59,458.15l.11,8.21,2.93-.04.03,2.05-8.07.1-.03-2.05,2.93-.04-.11-8.21,2.2-.03Z"/>
        <path d="m206.01,459.53c1.03,1.09,1.51,2.37,1.45,3.85-.06,1.47-.65,2.71-1.76,3.71-1.11,1-2.46,1.47-4.03,1.4-1.57-.07-2.87-.64-3.9-1.73-1.03-1.09-1.51-2.37-1.45-3.85.06-1.47.65-2.71,1.76-3.71,1.11-1,2.46-1.47,4.03-1.4,1.57.07,2.87.64,3.9,1.73Zm-1.88,6.05c.67-.61,1.02-1.38,1.06-2.3.04-.92-.25-1.71-.86-2.38s-1.38-1.02-2.3-1.06c-.92-.04-1.71.25-2.38.86-.67.61-1.02,1.38-1.06,2.3-.04.92.25,1.71.86,2.38s1.38,1.02,2.3,1.06c.92.04,1.71-.25,2.38-.86Z"/>
        <path d="m189.6,457.07l-.95,8.16,2.91.34-.24,2.04-8.01-.93.24-2.04,2.91.34.95-8.16,2.19.25Z"/>
        <path d="m182.96,456.33l-.34,1.95c-.09-.05-.17-.09-.23-.11-.18-.08-.41-.15-.68-.2-.69-.12-1.29.15-1.78.8l-.2.26,2.55,7.52-2.53-.44-1.54-5.2-2.86,4.43-2.53-.45,5.14-7.21c1.03-1.46,2.3-2.05,3.82-1.79.34.06.62.15.86.26.03.02.06.03.11.06.05.02.09.04.12.07.04.02.07.04.1.05Z"/>
        <path d="m173.39,454.49l-2.71,9.9-4.17-1.14c-1.05-.29-1.81-.83-2.3-1.63-.49-.8-.6-1.69-.33-2.66s.81-1.68,1.64-2.12,1.76-.52,2.81-.23l2.05.56.89-3.26,2.12.58Zm-3.56,4.65l-1.98-.54c-.42-.12-.8-.09-1.13.09s-.55.47-.66.86c-.11.4-.07.76.12,1.08.19.32.5.54.92.66l1.98.54.74-2.69Z"/>
        <path d="m163.85,451.8l-4.13,9.4-2.01-.89,2.65-6.04-7.22,4.04-1.81-.8,4.13-9.4,2.01.89-2.65,6.04,7.22-4.04,1.81.79Z"/>
        <path d="m153.39,448.65l-2.04.38c-.02-.28-.08-.56-.18-.84-.23-.63-.61-1.13-1.14-1.5-.54-.37-1.01-.56-1.42-.55-.41,0-.71.15-.92.45-.2.29-.24.62-.12,1s.43.73.92,1.07l1.15.79-1.08,1.57-1.03-.71c-.44-.3-.83-.45-1.18-.42-.34.03-.62.18-.82.47-.2.29-.25.6-.15.93s.37.65.81.95c.43.29.94.44,1.52.43.31-.02.56-.06.75-.11l.37,2.04c-.39.1-.79.13-1.19.1-.97-.04-1.87-.35-2.7-.92-.93-.64-1.51-1.39-1.75-2.24-.24-.85-.14-1.6.3-2.24.41-.59.98-.92,1.7-.97.31-.02.63.02.94.11-.24-.29-.42-.63-.55-1.01-.26-.83-.16-1.58.32-2.27.48-.7,1.2-1.09,2.15-1.16s1.94.24,2.98.96c.93.64,1.6,1.44,2.02,2.41.16.39.27.81.34,1.27Z"/>
        <path d="m146.06,441.84l-7.77,6.72-1.3-1.5,1.02-5.54-5.63.22-1.3-1.5,7.77-6.72,1.44,1.66-5.1,4.41,5.27-.19-.95,5.18,5.1-4.41,1.44,1.66Z"/>
        <path d="m139.66,428.38l-14.11,1.53-.75-1.67,14.11-1.53.75,1.67Z"/>
        <path d="m137.99,424.9l-14.19.36-.61-1.73,14.19-.36.61,1.73Z"/>
        <path d="m131.87,415.74l-10.19,1.27-1.08-8.66,10.19-1.27.27,2.18-8.15,1.02.54,4.29,8.15-1.02.27,2.19Z"/>
        <path d="m130.77,404.51l-10.26-.48.36-7.62,2.05.1-.25,5.42,1.98.09.2-4.25,1.98.09-.2,4.25,2.2.1.26-5.57,2.05.1-.36,7.76Z"/>
        <path d="m131.82,392.94l-8.06-1.57-.56,2.88-2.02-.39,1.54-7.92,2.02.39-.56,2.88,8.06,1.57-.42,2.16Z"/>
        <path d="m133.26,386.36l-9.74-3.25,2.41-7.24,1.95.65-1.72,5.15,1.88.63,1.34-4.04,1.88.63-1.35,4.04,2.09.7,1.76-5.29,1.95.65-2.46,7.38Z"/>
        <path d="m136.49,377.18l-9.29-4.36,1.84-3.92c.46-.98,1.13-1.64,2-1.98.87-.34,1.77-.3,2.68.13.91.43,1.52,1.09,1.81,1.98.29.89.21,1.83-.25,2.81l-.9,1.93,3.05,1.43-.94,1.99Zm-3.98-4.3l.87-1.86c.19-.4.22-.77.1-1.13-.12-.35-.37-.62-.74-.79-.37-.17-.73-.2-1.08-.06-.35.13-.62.4-.8.8l-.87,1.86,2.52,1.18Z"/>
        <path d="m140.89,368.17l-8.81-5.27,3.65-6.11,1.76,1.05-2.52,4.22,1.51.9,1.17-1.95c.54-.9,1.23-1.47,2.09-1.71.86-.24,1.69-.13,2.48.35.8.48,1.29,1.15,1.48,2.02.19.87.02,1.76-.52,2.66l-2.3,3.84Zm-.63-2.94l1.13-1.89c.21-.34.28-.67.21-.99-.07-.32-.25-.57-.54-.74-.29-.18-.6-.22-.91-.13-.31.09-.57.31-.78.66l-1.13,1.89,2.01,1.2Z"/>
        <path d="m145.97,359.76l-1.61-1.15c.09-.06.16-.11.2-.16.15-.13.31-.31.47-.53.41-.57.42-1.22.04-1.95l-.15-.29-7.89-.94,1.49-2.09,5.36.85-2.76-4.49,1.49-2.09,4.3,7.74c.87,1.56.86,2.96-.03,4.21-.2.28-.4.5-.6.67-.03.02-.06.04-.1.07-.04.03-.08.06-.11.08-.04.02-.06.04-.09.06Z"/>
        <path d="m151.8,351.86l-7.97-6.48,2.73-3.36c.68-.84,1.49-1.32,2.42-1.44.93-.12,1.79.14,2.57.77.78.64,1.21,1.42,1.28,2.36.07.93-.23,1.82-.92,2.66l-1.34,1.65,2.62,2.13-1.39,1.71Zm-2.82-5.13l1.3-1.59c.28-.34.4-.7.37-1.07s-.21-.69-.52-.95-.66-.37-1.03-.32-.7.24-.97.58l-1.3,1.59,2.16,1.76Z"/>
        <path d="m158.25,344.06l-7.61-6.89,4.67-5.17,1.52,1.38-3.2,3.54,6.09,5.51-1.48,1.63Z"/>
        <path d="m162.63,332.96l-1.19-1.2,7.13-7.08,1.19,1.2-7.13,7.08Z"/>
        <path d="m174.76,324.51l.14-2.07c.31.07.66.09,1.05.06.84-.08,1.55-.38,2.13-.89.6-.52.96-1.14,1.09-1.85s.04-1.37-.26-2l-3.37,2.94-1.3-1.49,3.37-2.94c-.56-.36-1.19-.51-1.91-.48-.71.04-1.37.32-1.96.84-.57.5-.94,1.15-1.11,1.94-.07.38-.1.72-.08,1.04l-2.07-.14c-.02-.5.02-1,.14-1.49.27-1.15.86-2.11,1.77-2.91,1.19-1.04,2.53-1.51,4.02-1.43s2.73.68,3.7,1.79c.97,1.11,1.4,2.41,1.28,3.91-.12,1.49-.77,2.76-1.95,3.79-.91.79-1.96,1.26-3.16,1.4-.53.05-1.03.03-1.5-.05Z"/>
        <path d="m186.44,316.95l-5.14-6.41-2.29,1.84-1.29-1.6,6.29-5.05,1.29,1.6-2.29,1.84,5.14,6.41-1.72,1.38Z"/>
        <path d="m191.59,311.15c-1.48-.21-2.66-.91-3.53-2.11-.87-1.19-1.19-2.53-.94-4s1-2.68,2.28-3.61c1.27-.93,2.65-1.29,4.13-1.08,1.48.21,2.66.91,3.53,2.11.87,1.19,1.19,2.53.94,4s-1,2.68-2.27,3.61c-1.27.93-2.65,1.29-4.13,1.08Zm-2.3-5.9c-.14.89.06,1.71.61,2.45.54.74,1.26,1.18,2.16,1.32.89.14,1.71-.06,2.45-.61s1.18-1.26,1.32-2.16c.14-.9-.06-1.71-.61-2.46-.54-.74-1.26-1.18-2.16-1.32-.9-.14-1.71.06-2.46.61s-1.18,1.26-1.32,2.16Z"/>
        <path d="m205.92,302.75l-4.46-6.9-2.46,1.6-1.12-1.72,6.77-4.38,1.12,1.72-2.46,1.59,4.46,6.9-1.85,1.2Z"/>
        <path d="m211.78,299.01l-5.24-8.83,6.56-3.89,1.05,1.77-4.67,2.77,1.01,1.7,3.66-2.17,1.01,1.7-3.66,2.17,1.12,1.89,4.79-2.85,1.05,1.77-6.69,3.97Z"/>
        <path d="m219.18,294.61l.56-6.38-5.17-2.79,2.26-1.22,3.45,1.97.05-.03.24-3.97,2.26-1.22-.51,5.86,5.64,3.04-2.26,1.22-3.91-2.22-.05.03-.29,4.49-2.26,1.22Z"/>
        <path d="m229.29,289.21l-4.47-9.24,1.98-.96,1.76,3.63,3.96-1.91-1.76-3.63,1.98-.96,4.47,9.24-1.98.96-1.82-3.76-3.96,1.91,1.82,3.76-1.98.96Z"/>
        <path d="m240.15,282.59c-1.39-.55-2.38-1.5-2.96-2.86-.58-1.36-.58-2.73,0-4.11.58-1.38,1.59-2.38,3.04-2.99,1.45-.61,2.87-.65,4.26-.1,1.39.55,2.38,1.5,2.96,2.86.58,1.36.58,2.73,0,4.11-.58,1.38-1.59,2.38-3.04,2.99-1.45.61-2.87.65-4.26.1Zm-.89-6.27c-.34.84-.33,1.68.03,2.53.36.85.96,1.44,1.8,1.78s1.68.33,2.53-.03c.85-.36,1.44-.96,1.78-1.8.34-.84.33-1.68-.03-2.53-.36-.85-.96-1.44-1.8-1.78-.84-.34-1.68-.33-2.53.03-.85.36-1.44.96-1.78,1.8Z"/>
        <path d="m249.99,279.89l-.74-2c.1,0,.18,0,.25-.01.17-.01.34-.05.49-.1.27-.1.47-.24.6-.42.14-.18.22-.47.26-.86.04-.38-.02-.92-.18-1.59-.16-.67-.42-1.5-.78-2.48l-1.12-3.03,6.95-2.57,3.56,9.63-2.06.76-2.85-7.71-2.82,1.04.41,1.1c.49,1.32.82,2.47,1,3.44s.21,1.76.09,2.36c-.12.6-.33,1.08-.63,1.42-.29.34-.69.61-1.19.79-.32.12-.61.19-.88.21h-.37Z"/>
        <path d="m262.4,273.98c-1.34-.68-2.23-1.72-2.67-3.13-.44-1.41-.31-2.77.39-4.09.71-1.32,1.81-2.22,3.31-2.69,1.5-.47,2.92-.37,4.26.3s2.23,1.72,2.67,3.13c.44,1.41.31,2.77-.39,4.09-.71,1.32-1.81,2.22-3.31,2.69-1.5.47-2.92.37-4.26-.3Zm-.29-6.33c-.42.8-.49,1.64-.21,2.52s.82,1.52,1.62,1.94,1.64.49,2.52.21c.88-.28,1.52-.82,1.94-1.62s.49-1.64.21-2.52c-.28-.88-.82-1.52-1.62-1.94s-1.64-.49-2.52-.21c-.88.28-1.52.82-1.94,1.62Z"/>
        <path d="m274.02,271.84l-2.66-9.92,6.73-1.81.53,1.98-4.6,1.24,2.13,7.93-2.13.57Z"/>
        <path d="m282.49,269.59l-2.24-10.02,2.15-.48,1.44,6.44,3.42-7.53,1.93-.43,2.24,10.02-2.15.48-1.44-6.44-3.42,7.53-1.93.43Z"/>
        <path d="m294.2,267.04l-1.75-10.12,2.17-.38,1.13,6.5,3.79-7.36,1.95-.34,1.75,10.12-2.17.38-1.13-6.5-3.79,7.36-1.95.34Z"/>
        <path d="m308.42,267.86l2.76-13.92,1.82-.22-2.76,13.92-1.82.22Z"/>
        <path d="m312.62,267.34l3-13.87,1.82-.19-3,13.87-1.82.19Z"/>
        <path d="m323.34,263.24l-.52-10.26,8.72-.44.52,10.26-2.2.11-.42-8.2-4.32.22.42,8.2-2.2.11Z"/>
        <path d="m334.91,262.74l-.05-10.27,7.63-.04v2.05s-5.42.03-5.42.03v1.98s4.26-.02,4.26-.02v1.98s-4.24.02-4.24.02v2.2s5.59-.03,5.59-.03v2.05s-7.76.04-7.76.04Z"/>
        <path d="m346.77,262.82l.29-8.21-2.93-.1.07-2.05,8.06.29-.07,2.05-2.93-.1-.29,8.21-2.2-.08Z"/>
        <path d="m353.71,263.11l.78-10.24,7.61.58-.16,2.05-5.41-.41-.15,1.97,4.24.32-.15,1.98-4.24-.33-.17,2.19,5.56.43-.16,2.05-7.75-.59Z"/>
        <path d="m363.61,263.93l1.24-10.19,4.29.52c1.08.13,1.92.56,2.51,1.28.6.72.83,1.58.71,2.58-.12,1-.56,1.78-1.31,2.34s-1.67.77-2.75.64l-2.11-.26-.41,3.35-2.19-.26Zm2.84-5.12l2.04.25c.44.05.8-.03,1.1-.26.3-.23.47-.54.52-.95s-.04-.76-.28-1.05-.57-.46-1.01-.51l-2.04-.25-.34,2.77Z"/>
        <path d="m373.67,265.21l1.7-10.13,7.02,1.17-.34,2.02-4.85-.81-.29,1.74,2.24.38c1.03.17,1.82.61,2.36,1.32s.73,1.52.58,2.44c-.15.92-.6,1.62-1.34,2.12-.74.5-1.63.66-2.66.48l-4.41-.74Zm2.51-1.66l2.17.36c.4.07.73.01,1-.17.27-.18.44-.43.49-.77.06-.34-.02-.63-.21-.89-.2-.26-.5-.42-.89-.48l-2.17-.36-.39,2.31Z"/>
        <path d="m383.4,266.83l.42-1.94c.09.06.16.1.23.12.18.09.4.16.67.22.69.15,1.29-.1,1.81-.74l.2-.26-2.26-7.61,2.51.54,1.34,5.26,3.03-4.31,2.51.54-5.41,7.01c-1.08,1.42-2.38,1.96-3.88,1.64-.33-.07-.62-.17-.85-.29-.03-.02-.06-.04-.11-.06-.05-.02-.08-.05-.12-.07-.04-.02-.07-.04-.09-.06Z"/>
        <path d="m393.03,269.04l2.63-9.93,4.18,1.11c1.05.28,1.82.82,2.31,1.61.49.8.61,1.68.35,2.66s-.8,1.69-1.62,2.14c-.82.45-1.76.54-2.81.26l-2.06-.54-.86,3.26-2.13-.56Zm3.51-4.68l1.99.52c.42.11.8.08,1.13-.1.33-.18.54-.47.65-.87.11-.4.06-.76-.13-1.08-.19-.32-.5-.54-.93-.65l-1.99-.52-.71,2.69Z"/>
        <path d="m402.85,271.72l3.06-9.8,6.65,2.08-.61,1.96-4.55-1.42-2.45,7.84-2.1-.66Z"/>
        <path d="m414.75,271.08l.6-1.58,9.39,3.58-.6,1.58-9.39-3.58Z"/>
        <path d="m427.43,278.67l1.95-.71c.06.31.18.64.37.98.41.73.97,1.26,1.67,1.59.72.33,1.43.42,2.13.24s1.27-.52,1.72-1.04l-4.06-1.89.83-1.8,4.06,1.89c.1-.66-.01-1.3-.34-1.94-.33-.64-.85-1.12-1.57-1.45-.69-.32-1.43-.4-2.22-.23-.37.08-.7.2-.99.35l-.71-1.95c.45-.22.92-.38,1.42-.47,1.16-.22,2.28-.07,3.37.43,1.43.66,2.41,1.7,2.94,3.1s.48,2.77-.14,4.11-1.64,2.26-3.05,2.76c-1.41.5-2.83.41-4.26-.25-1.09-.51-1.94-1.28-2.56-2.32-.26-.46-.45-.93-.57-1.39Z"/>
        <path d="m439.06,286.3l3.82-7.27-2.6-1.36.95-1.82,7.14,3.75-.95,1.82-2.6-1.36-3.82,7.27-1.95-1.02Z"/>
        <path d="m446.42,288.72c-.39-1.45-.2-2.81.55-4.07.76-1.27,1.86-2.08,3.32-2.43,1.45-.35,2.86-.13,4.21.68,1.35.8,2.22,1.93,2.61,3.38s.2,2.81-.55,4.07c-.76,1.27-1.86,2.08-3.32,2.43-1.46.35-2.86.13-4.21-.68-1.35-.81-2.22-1.93-2.61-3.38Zm4.53-4.43c-.88.22-1.55.73-2.02,1.52-.47.79-.59,1.63-.37,2.5s.73,1.55,1.52,2.02,1.62.59,2.5.37c.88-.22,1.55-.73,2.02-1.52.47-.79.59-1.62.37-2.5-.22-.88-.73-1.55-1.52-2.02-.79-.47-1.62-.59-2.5-.37Z"/>
        <path d="m458.46,297.74l5.96-8.36,1.79,1.28-3.83,5.37,7.89-2.48,1.61,1.15-5.96,8.36-1.79-1.28,3.83-5.37-7.89,2.48-1.61-1.15Z"/>
        <path d="m476.3,307.17l.21,2.06c-.47.1-.97.13-1.5.1-1.21-.1-2.28-.53-3.21-1.29-1.22-.99-1.91-2.24-2.08-3.72-.17-1.49.21-2.8,1.15-3.95.93-1.14,2.15-1.78,3.64-1.92,1.49-.13,2.85.3,4.07,1.29.93.76,1.55,1.71,1.86,2.85.13.49.2.98.19,1.48l-2.06.21c0-.32-.03-.67-.12-1.04-.19-.79-.58-1.42-1.17-1.9-.71-.58-1.52-.83-2.42-.73s-1.64.49-2.22,1.2c-.58.71-.83,1.52-.73,2.42.09.9.49,1.64,1.2,2.22.6.49,1.32.76,2.16.81.39.02.74-.02,1.04-.1Z"/>
        <path d="m478.03,313.13l5.55-6.05-2.16-1.98,1.39-1.51,5.94,5.46-1.39,1.51-2.16-1.98-5.55,6.05-1.62-1.49Z"/>
        <path d="m484.52,317.37c.01-1.5.55-2.76,1.62-3.78,1.07-1.02,2.35-1.51,3.84-1.46,1.5.05,2.79.64,3.88,1.78,1.09,1.14,1.63,2.45,1.61,3.95-.01,1.5-.55,2.76-1.62,3.78-1.07,1.02-2.35,1.51-3.84,1.46s-2.79-.64-3.88-1.78c-1.09-1.14-1.63-2.45-1.61-3.95Zm5.55-3.06c-.91-.02-1.69.29-2.35.93-.66.64-1,1.41-1.02,2.31-.02.91.29,1.69.93,2.35.64.66,1.41,1,2.31,1.02.91.02,1.69-.29,2.35-.93.66-.64,1-1.41,1.02-2.31.02-.91-.29-1.69-.93-2.35-.64-.66-1.41-1-2.31-1.02Z"/>
        <path d="m491.5,326.8l7.9-6.55,2.76,3.33c.69.83,1.01,1.72.94,2.66s-.48,1.72-1.26,2.37c-.78.64-1.63.91-2.56.8-.93-.11-1.74-.58-2.44-1.42l-1.36-1.64-2.6,2.15-1.41-1.69Zm5.58-1.77l1.31,1.58c.28.34.61.53.98.57.37.04.71-.07,1.03-.33s.49-.58.52-.95-.1-.73-.38-1.07l-1.31-1.58-2.14,1.78Z"/>
        <path d="m497.89,334.61l8.36-5.96,1.28,1.79-5.38,3.83,8.27.23,1.15,1.61-8.36,5.96-1.28-1.79,5.38-3.83-8.27-.23-1.15-1.61Z"/>
        <path d="m504.25,343.64l4.37-.15c-.05-.37-.03-.73.07-1.07.2-.8.73-1.47,1.59-1.99.89-.53,1.77-.69,2.64-.45.88.23,1.6.82,2.16,1.75l2.35,3.89-8.79,5.3-1.14-1.88,2.89-1.74-1.06-1.76-3.84.17-1.25-2.07Zm6.73.65l1.17,1.95,2.39-1.44-1.17-1.95c-.21-.35-.5-.57-.85-.66s-.71-.03-1.06.19-.57.5-.66.85-.03.71.19,1.06Z"/>
        <path d="m508.16,356.54l14.04-2.1.82,1.64-14.04,2.1-.82-1.64Z"/>
        <path d="m510.04,360.24l14.1-1.62.76,1.67-14.1,1.62-.76-1.67Z"/>
        <path d="m516.04,365.97l9.58-3.7,3.15,8.14-9.58,3.7-.79-2.05,7.66-2.96-1.56-4.04-7.66,2.96-.79-2.05Z"/>
        <path d="m520.06,376.71l9.8-3.05,2.27,7.28-1.96.61-1.61-5.18-1.89.59,1.26,4.06-1.89.59-1.26-4.06-2.1.65,1.66,5.32-1.96.61-2.31-7.42Z"/>
        <path d="m523.39,388.08l7.97-2-.72-2.85,1.99-.5,1.97,7.83-1.99.5-.71-2.85-7.97,2-.54-2.13Z"/>
        <path d="m525.01,394.79l10.07-1.99,1.48,7.48-2.01.4-1.05-5.32-1.94.38.82,4.17-1.94.38-.82-4.17-2.16.43,1.08,5.47-2.02.4-1.51-7.63Z"/>
        <path d="m526.87,404.55l10.16-1.47.62,4.28c.16,1.08-.04,2-.58,2.76-.54.76-1.31,1.22-2.31,1.36-1,.15-1.86-.07-2.6-.65-.74-.58-1.18-1.41-1.34-2.48l-.3-2.1-3.34.48-.32-2.18Zm5.69,1.4l.29,2.03c.06.43.24.77.54,1,.29.23.65.31,1.05.26.41-.06.72-.24.94-.54.22-.3.3-.67.23-1.11l-.3-2.03-2.76.4Z"/>
        <path d="m528.25,414.6l10.22-.99.69,7.08-2.04.2-.47-4.89-1.75.17.22,2.26c.1,1.04-.12,1.91-.67,2.62s-1.28,1.1-2.2,1.2c-.93.09-1.72-.16-2.39-.75-.67-.59-1.06-1.4-1.16-2.45l-.43-4.45Zm2.26,1.99l.21,2.19c.04.4.18.71.42.92.24.22.53.31.87.28.34-.03.61-.18.8-.44s.27-.59.24-.99l-.21-2.19-2.34.23Z"/>
        <path d="m529.22,424.45l1.98-.11c-.03.1-.05.18-.06.25-.04.2-.05.43-.04.71.04.7.43,1.22,1.19,1.55l.3.13,6.75-4.19.14,2.56-4.72,2.68,4.96,1.79.14,2.56-8.19-3.37c-1.65-.67-2.52-1.78-2.6-3.31-.02-.34,0-.64.05-.9,0-.03.02-.07.03-.12s.02-.1.04-.14c.01-.04.02-.08.03-.1Z"/>
        <path d="m529.63,434.3l10.27-.16.07,4.33c.02,1.09-.29,1.97-.93,2.66-.64.69-1.46,1.04-2.46,1.06-1.01.02-1.84-.31-2.49-.98-.66-.67-.99-1.55-1.01-2.63l-.03-2.13-3.37.05-.03-2.2Zm5.46,2.12l.03,2.05c0,.44.14.79.4,1.06.26.27.6.4,1.01.39.41,0,.74-.15,1-.42.26-.27.38-.63.37-1.07l-.03-2.05-2.79.04Z"/>
        <path d="m529.74,444.47l10.27.24-.16,6.97-2.05-.05.11-4.77-8.21-.19.05-2.2Z"/>
        <path d="m533.69,455.71l1.68.11-.65,10.02-1.68-.11.65-10.02Z"/>
        <path d="m530.22,470.08l1.29,1.63c-.27.15-.55.37-.82.66-.57.63-.89,1.32-.98,2.09-.09.79.05,1.48.43,2.1.38.61.89,1.05,1.53,1.31l.52-4.45,1.97.23-.52,4.44c.65-.11,1.23-.42,1.73-.93s.8-1.15.89-1.94c.09-.76-.07-1.48-.48-2.18-.2-.33-.41-.61-.64-.83l1.63-1.29c.35.35.65.76.89,1.2.57,1.03.78,2.15.64,3.34-.18,1.56-.86,2.82-2.02,3.76-1.16.94-2.48,1.33-3.95,1.15-1.47-.17-2.66-.85-3.57-2.03-.92-1.19-1.28-2.56-1.1-4.13.14-1.19.61-2.25,1.4-3.16.36-.39.74-.72,1.15-.97Z"/>
        <path d="m526.66,483.54l8.12,1.24.44-2.9,2.03.31-1.21,7.97-2.03-.31.44-2.9-8.12-1.24.33-2.17Z"/>
        <path d="m526.8,491.31c1.23-.86,2.57-1.15,4.02-.87,1.45.28,2.59,1.04,3.42,2.29s1.09,2.64.8,4.19-1.06,2.75-2.29,3.6c-1.23.85-2.57,1.14-4.02.87-1.45-.28-2.59-1.04-3.42-2.29-.83-1.25-1.09-2.64-.8-4.19s1.06-2.75,2.29-3.6Zm5.71,2.75c-.51-.75-1.21-1.21-2.12-1.38-.9-.17-1.73,0-2.48.51-.75.51-1.21,1.21-1.38,2.12s0,1.73.51,2.48c.51.75,1.21,1.21,2.12,1.38.9.17,1.73,0,2.48-.5.75-.51,1.21-1.22,1.38-2.12.17-.9,0-1.73-.51-2.48Z"/>
        <path d="m522.79,504.51l2.06.52c-.06.08-.1.15-.13.21-.09.15-.15.3-.19.47-.07.28-.07.52.01.74.08.22.26.45.56.7.29.25.77.5,1.42.75s1.48.5,2.5.75l3.13.78-1.79,7.19-9.96-2.49.53-2.14,7.97,1.99.73-2.92-1.14-.28c-1.37-.34-2.5-.71-3.41-1.11s-1.57-.82-2-1.26-.7-.88-.82-1.32-.11-.91.02-1.42c.08-.33.19-.61.32-.84l.2-.31Z"/>
        <path d="m519.69,516.88l9.82,3-.64,2.1-3.86-1.18-.41,1.33c1.07.56,1.86,1.41,2.37,2.56s.57,2.37.18,3.66c-.43,1.4-1.29,2.45-2.58,3.13-1.29.68-2.65.8-4.08.36-1.43-.44-2.49-1.3-3.19-2.58-.69-1.29-.82-2.63-.4-4.03.39-1.29,1.14-2.27,2.25-2.95,1.11-.68,2.27-.93,3.48-.75l.41-1.33-4-1.22.64-2.1Zm.71,7.2c-.77.38-1.28.97-1.52,1.75-.24.78-.14,1.55.29,2.3s1.1,1.26,1.99,1.54c.9.27,1.73.22,2.51-.16.78-.38,1.28-.96,1.52-1.75s.14-1.55-.29-2.3c-.43-.75-1.1-1.26-1.99-1.54-.9-.27-1.73-.22-2.51.16Z"/>
        <path d="m513.46,530.06l3.86,1.4-.2.55c.18.36.46.74.83,1.16.87.89,1.98,1.57,3.33,2.06l3.02,1.09-2.42,6.69-7.73-2.79-.42,1.17-3.86-1.4.75-2.07,1.93.7,2.09-5.79-1.93-.7.75-2.07Zm2.87,4.15l-1.42,3.93,5.79,2.09.92-2.55-1.1-.4c-1.36-.49-2.47-1.15-3.34-1.99-.39-.39-.67-.75-.85-1.09Z"/>
        <path d="m511.13,542.39l9.49,3.92-.84,2.03-6.1-2.52,4.2,7.13-.76,1.83-9.49-3.91.84-2.03,6.1,2.52-4.2-7.13.76-1.83Z"/>
        <path d="m502.86,553.98l10.32,9.74-.78,1.66-10.32-9.74.78-1.66Z"/>
        <path d="m501.06,557.81l10.15,9.92-.81,1.64-10.15-9.92.81-1.64Z"/>
        <path d="m498.83,569.09l8.96,5.01-4.26,7.62-8.96-5.01,1.07-1.92,7.17,4.01,2.11-3.78-7.17-4.01,1.07-1.92Z"/>
        <path d="m493.13,579.14l8.73,5.41-4.02,6.49-1.75-1.08,2.86-4.62-1.68-1.04-2.24,3.62-1.68-1.04,2.24-3.62-1.87-1.16-2.94,4.74-1.75-1.08,4.09-6.61Z"/>
        <path d="m486.76,589.14l6.8,4.6,1.64-2.43,1.7,1.15-4.52,6.68-1.7-1.15,1.64-2.43-6.8-4.6,1.23-1.82Z"/>
        <path d="m482.83,594.84l8.29,6.06-4.5,6.16-1.66-1.21,3.2-4.38-1.6-1.17-2.51,3.44-1.6-1.17,2.51-3.44-1.78-1.3-3.29,4.5-1.66-1.21,4.59-6.28Z"/>
        <path d="m476.88,602.82l8,6.44-2.71,3.37c-.68.85-1.49,1.33-2.41,1.46-.93.13-1.79-.13-2.57-.76-.78-.63-1.21-1.42-1.29-2.35-.08-.94.23-1.82.91-2.67l1.33-1.66-2.63-2.12,1.38-1.71Zm2.85,5.12l-1.29,1.6c-.28.34-.4.7-.36,1.07.03.37.21.69.53.95.32.26.67.36,1.04.32.37-.05.69-.24.97-.58l1.29-1.6-2.17-1.75Z"/>
        <path d="m470.45,610.71l7.73,6.76-4.68,5.36-1.55-1.35,3.23-3.7-1.33-1.16-1.5,1.71c-.69.79-1.48,1.23-2.36,1.32-.89.09-1.68-.17-2.38-.79-.7-.61-1.07-1.36-1.1-2.25-.03-.89.3-1.73.98-2.52l2.94-3.37Zm.1,3.01l-1.45,1.66c-.26.3-.39.61-.38.94s.14.6.4.83c.26.22.55.32.87.28.32-.04.62-.21.88-.51l1.45-1.66-1.77-1.54Z"/>
        <path d="m463.96,618.17l1.44,1.36c-.1.04-.17.09-.22.13-.17.11-.35.27-.54.46-.48.51-.58,1.16-.3,1.93l.11.31,7.69,1.99-1.76,1.87-5.2-1.56,2.13,4.82-1.76,1.87-3.22-8.25c-.65-1.66-.45-3.05.6-4.17.23-.25.46-.44.69-.58.03-.02.06-.03.11-.06s.08-.05.12-.07c.04-.02.07-.03.1-.05Z"/>
        <path d="m457.1,625.3l7.24,7.28-3.07,3.05c-.77.77-1.62,1.16-2.56,1.18-.94.02-1.76-.32-2.47-1.04-.71-.71-1.05-1.54-1.03-2.48.03-.94.42-1.79,1.19-2.55l1.51-1.5-2.38-2.39,1.56-1.55Zm2.27,5.4l-1.46,1.45c-.31.31-.47.65-.48,1.03,0,.38.13.71.42,1,.29.29.62.43.99.43.37,0,.71-.16,1.03-.47l1.46-1.45-1.97-1.98Z"/>
        <path d="m449.83,632.47l7.03,7.49-5.08,4.77-1.41-1.5,3.48-3.26-5.62-5.99,1.6-1.51Z"/>
        <path d="m444.56,643.15l1.11,1.27-7.57,6.6-1.11-1.27,7.57-6.6Z"/>
        <path d="m431.93,650.84l-.21,2.07c-.3-.08-.65-.11-1.04-.1-.84.05-1.56.32-2.16.81-.61.5-1,1.1-1.15,1.8-.15.7-.09,1.37.18,2.01l3.47-2.82,1.25,1.54-3.47,2.82c.54.38,1.17.56,1.89.55.71-.01,1.38-.27,1.99-.77.59-.48.98-1.11,1.18-1.9.09-.37.13-.72.12-1.04l2.06.22c0,.5-.06.99-.2,1.48-.31,1.14-.94,2.08-1.87,2.84-1.22.99-2.58,1.42-4.07,1.28-1.49-.14-2.7-.78-3.63-1.92-.93-1.15-1.31-2.46-1.14-3.95.17-1.49.87-2.73,2.09-3.72.93-.76,2-1.19,3.21-1.28.53-.03,1.03,0,1.5.1Z"/>
        <path d="m420.02,658.05l5.05,6.48,2.32-1.8,1.26,1.62-6.37,4.96-1.26-1.62,2.31-1.8-5.05-6.48,1.74-1.35Z"/>
        <path d="m414.79,663.8c1.48.2,2.67.88,3.56,2.07.88,1.18,1.21,2.51.98,3.99-.23,1.48-.97,2.69-2.23,3.63-1.26.95-2.63,1.32-4.12,1.12-1.48-.2-2.67-.88-3.55-2.07-.89-1.18-1.21-2.51-.98-3.99.23-1.48.97-2.69,2.23-3.63,1.26-.95,2.63-1.32,4.12-1.12Zm2.37,5.88c.13-.9-.08-1.71-.63-2.45-.55-.73-1.27-1.17-2.17-1.3-.9-.13-1.71.08-2.45.64-.74.55-1.17,1.27-1.3,2.17-.13.9.08,1.71.63,2.45.55.73,1.27,1.17,2.17,1.29.9.13,1.71-.08,2.45-.63.74-.55,1.17-1.27,1.3-2.17Z"/>
        <path d="m401.8,671.73l5.97,8.35-3.52,2.52c-.88.63-1.79.88-2.72.75-.93-.13-1.69-.6-2.27-1.42-.59-.82-.79-1.69-.61-2.61.18-.92.71-1.7,1.59-2.33l1.73-1.24-1.96-2.74,1.79-1.28Zm1.37,5.7l-1.67,1.19c-.36.26-.57.57-.64.94s.02.72.26,1.05c.24.33.54.53.91.58s.73-.05,1.09-.3l1.67-1.2-1.62-2.27Z"/>
        <path d="m393.46,679.33c1.48.25,2.63.99,3.47,2.2.84,1.21,1.11,2.56.83,4.03-.29,1.47-1.08,2.65-2.37,3.54s-2.68,1.21-4.16.96c-1.48-.25-2.63-.99-3.47-2.2-.84-1.22-1.11-2.56-.83-4.03.29-1.47,1.08-2.65,2.37-3.54,1.3-.89,2.68-1.21,4.16-.96Zm2.14,5.96c.16-.89-.02-1.71-.54-2.47-.52-.76-1.23-1.22-2.12-1.38-.89-.16-1.72.02-2.47.54-.76.52-1.22,1.23-1.38,2.12-.16.89.02,1.71.54,2.47.52.76,1.23,1.22,2.12,1.38.89.16,1.72-.02,2.47-.54.76-.52,1.22-1.23,1.38-2.12Z"/>
        <path d="m378.25,691.91l-2.03-.42c.05-.48.17-.96.36-1.46.46-1.12,1.19-2.01,2.2-2.67,1.32-.86,2.71-1.15,4.18-.86,1.47.29,2.61,1.05,3.42,2.29.81,1.24,1.05,2.58.73,4.05-.32,1.46-1.14,2.62-2.46,3.48-1.01.66-2.1.96-3.28.91-.5-.02-.99-.11-1.47-.26l.42-2.03c.3.1.65.17,1.03.2.81.06,1.53-.13,2.17-.54.77-.5,1.25-1.2,1.43-2.08.19-.89.03-1.72-.48-2.48-.5-.77-1.2-1.25-2.08-1.43s-1.72-.03-2.48.48c-.65.42-1.12,1.03-1.43,1.81-.13.37-.21.71-.23,1.02Z"/>
        <path d="m368.99,697.72l-2.02-.47c.06-.47.19-.96.39-1.45.49-1.11,1.24-1.98,2.26-2.61,1.34-.83,2.74-1.09,4.2-.76,1.46.32,2.58,1.11,3.36,2.36.78,1.25.99,2.61.64,4.06-.36,1.46-1.2,2.6-2.54,3.43-1.02.64-2.12.91-3.29.84-.5-.03-.99-.13-1.47-.3l.47-2.02c.3.11.64.19,1.02.23.81.07,1.53-.09,2.18-.49.78-.48,1.27-1.17,1.48-2.05.21-.88.07-1.71-.42-2.5s-1.17-1.27-2.05-1.48c-.88-.21-1.71-.07-2.5.42-.66.41-1.14,1-1.47,1.78-.14.36-.22.7-.25,1.02Z"/>
        <path d="m364.44,696.63l5.22,8.84-1.89,1.12-3.35-5.68-.94,8.22-1.71,1.01-5.22-8.84,1.89-1.12,3.35,5.68.94-8.22,1.71-1.01Z"/>
        <path d="m354.81,702.29v4.37c.38-.04.74,0,1.08.11.8.23,1.44.78,1.94,1.66.51.9.63,1.79.37,2.66-.26.87-.87,1.57-1.82,2.1l-3.97,2.22-5.02-8.96,1.92-1.08,1.65,2.94,1.79-1-.05-3.84,2.11-1.19Zm-.87,6.71l-1.98,1.11,1.36,2.43,1.98-1.11c.36-.2.59-.48.69-.83.1-.35.05-.71-.15-1.07-.2-.36-.48-.59-.83-.69s-.71-.05-1.07.15Z"/>
        <path d="m341.59,706.09l2.44,13.99-1.62.86-2.44-13.98,1.62-.86Z"/>
        <path d="m337.82,708.1l2.32,14-1.63.85-2.32-14,1.63-.85Z"/>
        <path d="m329.31,715.95l4.52,9.22-7.84,3.84-4.52-9.22,1.98-.97,3.62,7.37,3.88-1.9-3.62-7.38,1.98-.97Z"/>
        <path d="m318.87,721.03l4.34,9.31-6.91,3.22-.87-1.86,4.92-2.29-.84-1.79-3.85,1.8-.84-1.79,3.86-1.8-.93-2-5.05,2.36-.87-1.86,7.05-3.28Z"/>
        <path d="m308.04,726.01l3.34,7.5,2.68-1.19.84,1.88-7.37,3.28-.84-1.88,2.68-1.2-3.34-7.5,2.01-.9Z"/>
        <path d="m301.63,728.84l4.02,9.45-7.02,2.99-.8-1.89,4.99-2.12-.77-1.82-3.91,1.66-.78-1.82,3.91-1.67-.86-2.02-5.13,2.18-.8-1.89,7.15-3.04Z"/>
        <path d="m292.44,732.72l3.85,9.52-4.01,1.62c-1.01.41-1.94.44-2.82.1s-1.5-.98-1.88-1.91c-.38-.94-.37-1.83.01-2.68.39-.85,1.08-1.48,2.09-1.89l1.97-.8-1.27-3.13,2.04-.83Zm0,5.86l-1.9.77c-.41.16-.69.42-.84.76s-.15.7,0,1.08c.15.38.4.64.75.78.35.14.72.13,1.13-.04l1.9-.77-1.05-2.58Z"/>
        <path d="m282.93,736.54l3.68,9.58-6.64,2.55-.74-1.92,4.59-1.76-.63-1.64-2.12.82c-.98.38-1.88.39-2.7.06-.83-.34-1.41-.94-1.74-1.81s-.31-1.7.08-2.51c.39-.8,1.07-1.39,2.05-1.77l4.18-1.61Zm-1.32,2.71l-2.05.79c-.38.15-.63.36-.78.65s-.16.6-.03.92c.12.32.33.54.64.66.3.12.64.11,1.01-.04l2.05-.79-.84-2.19Z"/>
        <path d="m273.68,740.16l.68,1.86c-.11,0-.19,0-.26.02-.2.02-.43.08-.69.17-.66.24-1.04.77-1.14,1.59l-.04.33,5.97,5.24-2.41.88-3.94-3.73-.26,5.26-2.41.88.84-8.82c.16-1.78.96-2.93,2.41-3.46.32-.12.61-.19.88-.21.03,0,.07,0,.12,0,.05,0,.1,0,.14,0,.04,0,.08,0,.11,0Z"/>
        <path d="m264.32,743.47l3.36,9.7-4.09,1.42c-1.02.35-1.97.34-2.82-.05-.85-.39-1.45-1.05-1.77-2.01-.33-.95-.28-1.84.15-2.67.43-.83,1.16-1.43,2.19-1.78l2.01-.7-1.1-3.19,2.08-.72Zm-.3,5.85l-1.94.67c-.42.15-.71.38-.88.72s-.19.69-.05,1.08c.14.39.37.66.71.82.34.16.72.16,1.13.02l1.94-.67-.91-2.63Z"/>
        <path d="m254.63,746.8l3.21,9.75-6.62,2.18-.64-1.95,4.53-1.49-2.57-7.8,2.09-.69Z"/>
        <path d="m242.17,755.29l.48,1.61-9.62,2.89-.48-1.61,9.62-2.89Z"/>
        <path d="m227.51,757.1l-1.03,1.8c-.25-.2-.55-.36-.92-.51-.79-.29-1.56-.33-2.3-.13-.76.21-1.36.61-1.78,1.19s-.64,1.22-.64,1.91l4.31-1.19.52,1.91-4.31,1.19c.35.57.85.98,1.51,1.26.66.27,1.37.31,2.13.1.73-.2,1.35-.62,1.84-1.27.23-.31.4-.61.53-.91l1.8,1.03c-.2.46-.46.89-.77,1.28-.74.91-1.69,1.53-2.85,1.85-1.52.42-2.93.26-4.24-.46s-2.16-1.8-2.55-3.22-.21-2.78.55-4.07c.76-1.29,1.89-2.15,3.41-2.57,1.16-.32,2.31-.28,3.45.12.5.19.94.42,1.33.7Z"/>
        <path d="m213.64,758.95l2.05,7.95,2.84-.73.51,1.99-7.81,2.02-.51-1.99,2.84-.73-2.05-7.95,2.13-.55Z"/>
        <path d="m206.56,762.15c1.29.77,2.1,1.87,2.45,3.3.35,1.44.12,2.79-.68,4.06-.8,1.27-1.96,2.09-3.49,2.45-1.53.37-2.94.17-4.22-.6-1.29-.77-2.1-1.87-2.45-3.3s-.12-2.79.68-4.06c.8-1.27,1.96-2.09,3.49-2.46,1.53-.37,2.94-.17,4.23.6Zm-.15,6.34c.47-.77.6-1.61.39-2.5-.21-.89-.71-1.58-1.48-2.05-.77-.47-1.61-.6-2.5-.39-.89.21-1.58.71-2.05,1.48-.47.77-.6,1.6-.39,2.5.22.89.71,1.58,1.48,2.05.77.47,1.61.6,2.5.39.89-.22,1.58-.71,2.05-1.48Z"/>
        <path d="m192.8,764.02l.45,2.08c-.1-.02-.18-.03-.24-.02-.17-.01-.34,0-.5.03-.28.06-.5.17-.66.34-.16.16-.29.43-.38.81-.09.38-.11.91-.04,1.6.07.69.21,1.55.43,2.57l.68,3.15-7.24,1.57-2.17-10.04,2.15-.46,1.73,8.03,2.94-.64-.25-1.15c-.3-1.38-.47-2.56-.51-3.54s.04-1.77.24-2.35c.2-.58.48-1.02.82-1.32.34-.3.77-.5,1.28-.61.33-.07.63-.1.9-.09l.37.04Z"/>
        <path d="m180.31,766.72l1.96,10.08-2.16.42-.77-3.96-1.37.27c0,1.2-.38,2.3-1.15,3.29s-1.82,1.61-3.15,1.87c-1.44.28-2.76,0-3.97-.81-1.2-.82-1.95-1.97-2.24-3.44-.28-1.47-.02-2.81.79-4.02.81-1.21,1.94-1.96,3.38-2.24,1.32-.26,2.54-.05,3.66.6,1.11.66,1.88,1.57,2.29,2.72l1.37-.27-.8-4.1,2.16-.42Zm-6.03,4c-.7-.51-1.45-.68-2.26-.53-.81.16-1.44.6-1.9,1.33s-.6,1.56-.42,2.48c.18.92.62,1.64,1.32,2.14.7.51,1.45.68,2.26.52s1.44-.6,1.9-1.33c.46-.73.6-1.56.42-2.48s-.62-1.64-1.32-2.14Z"/>
        <path d="m164.36,769.75l1.76,10.12-7.01,1.22-.35-2.02,4.84-.84-.3-1.73-2.24.39c-1.03.18-1.92.02-2.66-.47-.74-.49-1.2-1.2-1.36-2.11-.16-.92.03-1.73.57-2.44s1.32-1.16,2.35-1.34l4.41-.77Zm-1.82,2.4l-2.17.38c-.39.07-.69.23-.89.49-.2.26-.27.55-.21.89.06.34.23.59.5.77.27.18.61.23,1,.16l2.17-.38-.4-2.31Z"/>
        <path d="m153.63,772.95c1.22.87,1.94,2.03,2.17,3.49.23,1.46-.11,2.79-1,3.99-.9,1.2-2.12,1.92-3.68,2.16-1.56.24-2.94-.07-4.16-.94-1.22-.87-1.94-2.03-2.17-3.49-.23-1.46.11-2.79,1.01-3.98.9-1.2,2.12-1.92,3.68-2.16s2.94.07,4.16.94Zm-.67,6.3c.53-.73.73-1.55.59-2.46s-.58-1.63-1.31-2.16c-.73-.53-1.55-.73-2.46-.59-.91.14-1.63.58-2.16,1.31-.53.73-.73,1.55-.59,2.46.14.91.58,1.63,1.31,2.16.73.53,1.55.73,2.46.59s1.63-.58,2.16-1.31Z"/>
        <path d="m141.78,773.4l1.4,10.17-4.29.59c-.99.14-1.82-.01-2.48-.45-.67-.44-1.05-1.03-1.16-1.79-.09-.66.07-1.24.47-1.75.2-.23.4-.41.62-.54-.35-.05-.69-.17-1.01-.36-.7-.45-1.11-1.06-1.22-1.85-.11-.81.11-1.54.67-2.2.56-.65,1.36-1.05,2.42-1.19l4.58-.63Zm-1.92,2.19l-2.25.31c-.43.06-.75.22-.96.47-.22.26-.3.57-.25.95s.22.66.49.85c.28.19.63.26,1.06.2l2.25-.31-.34-2.47Zm.6,4.36l-1.96.27c-.36.05-.63.18-.81.4s-.25.48-.21.78c.04.3.18.53.41.69.23.16.53.22.89.17l1.96-.27-.28-2.03Z"/>
        <path d="m131.5,774.79l1.25,10.19-2.19.27-.41-3.35-2.11.26c-1.08.13-1.99-.08-2.75-.64-.75-.56-1.19-1.34-1.31-2.34-.12-1,.11-1.86.71-2.58s1.43-1.15,2.51-1.28l4.3-.53Zm-1.94,2.3l-2.04.25c-.44.05-.77.22-1.01.52-.24.29-.33.64-.28,1.04.05.41.22.72.52.95.3.23.67.31,1.1.26l2.04-.25-.34-2.77Z"/>
      </g>
      <polygon class="cls-1" points="103.83 783.59 107.62 788.66 111.65 785.64 114.67 789.68 119.74 785.89 115.94 780.81 112.94 776.79 112.92 776.79 108.87 779.82 103.83 783.59"/>
      <polygon class="cls-1" points="162.49 174.06 118.8 164.33 111.05 199.12 76.25 191.37 66.52 235.06 110.29 244.81 144.9 252.52 145.03 252.44 152.8 217.56 162.49 174.06"/>
      <polygon class="cls-1" points="636.05 499.75 651.26 478.38 634.24 466.27 646.35 449.25 624.99 434.04 609.75 455.44 597.7 472.37 597.72 472.46 614.78 484.6 636.05 499.75"/>
      <polygon class="cls-1" points="56.34 380.44 30.77 374.65 26.16 395.03 5.78 390.42 0 416 25.62 421.79 45.89 426.38 45.97 426.33 50.58 405.91 56.34 380.44"/>
      <polygon class="cls-1" points="473.77 28.56 459.71 6.43 442.08 17.63 430.88 0 408.74 14.06 422.83 36.24 433.98 53.78 434.06 53.8 451.73 42.57 473.77 28.56"/>
      <polygon class="cls-1" points="551.16 283.69 563.4 248.64 535.48 238.9 545.22 210.98 510.17 198.74 497.92 233.86 488.22 261.63 488.27 261.74 516.26 271.51 551.16 283.69"/>
      <polygon class="cls-1" points="277.31 362.19 277.31 352.25 278.41 352.25 278.41 327.42 177.86 302.27 165.54 362.19 277.31 362.19"/>
    </g>
  </g>
</svg>