<svg id="Слой_1" data-name="Слой 1" xmlns="http://www.w3.org/2000/svg" viewBox="0 0 1200 300"><defs><style>.cls-1{fill:#010101;}</style></defs><title>лого и знак для сайта</title><path class="cls-1" d="M265.69,150.7c0,19-16.43,34.15-35.43,34.15-10.12,0-19-3.79-25.31-11.39-1.27,1.27-2.51,2.54-3.79,2.54,7.61,6.34,11.4,16.46,11.4,26.58a34.17,34.17,0,0,1-68.34,0c0-10.12,3.82-20.24,11.39-26.58a2.73,2.73,0,0,1-2.54-2.54c-6.3,7.6-16.43,11.39-26.55,11.39A34,34,0,0,1,92.34,150.7c0-19,15.21-35.43,34.18-35.43a35.48,35.48,0,0,1,26.55,12.67c0-1.28,1.27-2.55,2.54-3.82-7.57-6.31-11.39-15.18-11.39-25.31,0-19,15.18-35.42,34.18-35.42s34.16,16.45,34.16,35.42c0,10.13-3.79,19-11.4,25.31,1.28,1.27,2.52,2.54,3.79,3.82,6.34-7.61,15.19-12.67,25.31-12.67C249.26,115.27,265.69,131.73,265.69,150.7Z"/><circle class="cls-1" cx="104.62" cy="75.45" r="34.69"/><circle class="cls-1" cx="104.62" cy="224.67" r="34.69"/><circle class="cls-1" cx="253.41" cy="75.45" r="34.69"/><circle class="cls-1" cx="253.41" cy="224.67" r="34.69"/><path class="cls-1" d="M381.05,76.84V70.67H358.42V40.85h4.69V66.68h13.66V40.85h4.69V66.72h3.78V76.84Z"/><path class="cls-1" d="M410.88,64.17c-1,3.67-4.32,7-10,7-7.16,0-11-5.23-11-11.64,0-6.87,4.61-11.44,10.9-11.44,6.83,0,10.82,5.6,10.36,12.79H394.3c.41,4.08,3,6.63,6.46,6.63,3.08,0,4.89-1.28,5.8-3.38Zm-4.16-6.62a5.85,5.85,0,0,0-6-5.92c-3.33,0-5.8,1.73-6.38,5.92Z"/><path class="cls-1" d="M432.73,61.05H422v9.62h-4.28V48.54H422v9.09h10.78V48.54H437V70.67h-4.27Z"/><path class="cls-1" d="M454.86,70.67h-4.28V52h-7.81V48.54h19.87V52h-7.78Z"/><path class="cls-1" d="M472.47,51.79a7.61,7.61,0,0,1,6.92-3.66c5.14,0,9.54,4.32,9.54,11.52s-4.4,11.56-9.54,11.56a7.61,7.61,0,0,1-6.92-3.66V77.87H468.2V48.54h4.27Zm11.89,7.86c0-5-2.42-7.94-6-7.94-3.29,0-6.09,2.47-6.09,7.94s2.8,8,6.09,8C481.94,67.63,484.36,64.63,484.36,59.65Z"/><path class="cls-1" d="M508.84,57v-.46c0-3.9-2-5.22-4.77-5.22-3,0-4.65,1.52-4.81,4.24h-4.32c.37-4.69,4.24-7.53,9.3-7.53,5.71,0,9,2.75,8.92,9.38,0,.53-.08,4.36-.08,5.3a41.28,41.28,0,0,0,.62,8h-4.12a20.68,20.68,0,0,1-.37-2.92c-1.31,2.22-3.82,3.46-7.4,3.46-4.48,0-7.9-2.47-7.9-6.5C493.91,59.32,500.25,57.88,508.84,57Zm-10.28,7.65c0,2,1.61,3.29,4.2,3.29,3.53,0,6.29-1.77,6.29-6.17V60.14C502.18,60.8,498.56,61.75,498.56,64.63Z"/><path class="cls-1" d="M534.44,70.67V52h-6.87l-.21,4.15c-.45,9.3-2.38,14.56-8.14,14.56h-.78V67.26h.45c2.63,0,4-3.33,4.36-11.81l.33-6.91h15.14V70.67Z"/><path class="cls-1" d="M564.72,63.27c0,5.55-3.58,7.4-8.85,7.4H547V48.54h4.28v7.65h5C562.09,56.19,564.72,58.91,564.72,63.27Zm-4.28,0c0-2.72-1.56-3.66-4.73-3.66h-4.48v7.65h4.52C558.88,67.26,560.44,66.07,560.44,63.27Z"/><path class="cls-1" d="M586.16,61.05H575.38v9.62H571.1V48.54h4.28v9.09h10.78V48.54h4.27V70.67h-4.27Z"/><path class="cls-1" d="M612.08,57v-.46c0-3.9-2.06-5.22-4.77-5.22-3,0-4.65,1.52-4.82,4.24h-4.32c.37-4.69,4.24-7.53,9.3-7.53,5.72,0,9,2.75,8.93,9.38,0,.53-.08,4.36-.08,5.3a41.4,41.4,0,0,0,.61,8h-4.11a18.08,18.08,0,0,1-.37-2.92c-1.32,2.22-3.83,3.46-7.41,3.46-4.48,0-7.89-2.47-7.89-6.5C597.15,59.32,603.48,57.88,612.08,57ZM601.8,64.63c0,2,1.6,3.29,4.19,3.29,3.54,0,6.29-1.77,6.29-6.17V60.14C605.41,60.8,601.8,61.75,601.8,64.63Z"/><path class="cls-1" d="M627.67,61.87a6.37,6.37,0,0,1-4.4-6.33c0-4.53,3.09-7,8.35-7h9V70.67h-4.28V63h-4.4l-5.35,7.65h-5.1Zm8.64-2.26V52H632c-2.63,0-4.4,1.4-4.4,3.86,0,2.8,1.93,3.79,4.48,3.79Z"/><path class="cls-1" d="M664.79,70.67h-4.28V48.54h14.56V52H664.79Z"/><path class="cls-1" d="M689,71.21c-5.22,0-10.74-3.54-10.74-11.52S683.76,48.13,689,48.13s10.78,3.54,10.78,11.56S694.24,71.21,689,71.21Zm6.25-11.52c0-5.51-3-7.94-6.25-7.94s-6.21,2.35-6.21,7.94,3,7.9,6.21,7.9S695.23,65.08,695.23,59.69Z"/><path class="cls-1" d="M710.38,51.79a7.58,7.58,0,0,1,6.91-3.66c5.14,0,9.54,4.32,9.54,11.52s-4.4,11.56-9.54,11.56a7.58,7.58,0,0,1-6.91-3.66V77.87H706.1V48.54h4.28Zm11.88,7.86c0-5-2.42-7.94-6-7.94-3.29,0-6.09,2.47-6.09,7.94s2.8,8,6.09,8C719.84,67.63,722.26,64.63,722.26,59.65Z"/><path class="cls-1" d="M742.88,71.21c-5.22,0-10.74-3.54-10.74-11.52s5.52-11.56,10.74-11.56,10.78,3.54,10.78,11.56S748.14,71.21,742.88,71.21Zm6.25-11.52c0-5.51-3-7.94-6.25-7.94s-6.21,2.35-6.21,7.94,3,7.9,6.21,7.9S749.13,65.08,749.13,59.69Z"/><path class="cls-1" d="M777,75.94V70.67H761.23v5.27h-4V67.26h1.07c2.26,0,3.33-3.29,3.66-11.64l.29-7.08h15.63V67.26H781v8.68ZM766.21,52l-.29,4.93c-.29,5.1-1,8.56-2.71,10.37h10.36V52Z"/><path class="cls-1" d="M800.93,56a5.35,5.35,0,0,0-5.51-4.24c-3.08,0-5.92,2.43-5.92,7.82s2.88,7.94,5.92,7.94a5.58,5.58,0,0,0,5.68-4.24h4.32a10.05,10.05,0,0,1-10.08,7.9c-6.38,0-10.41-4.9-10.41-11.56s4.16-11.52,10.7-11.52a9.52,9.52,0,0,1,9.58,7.9Z"/><path class="cls-1" d="M816,60.92v9.75h-4.28V48.54H816v9h2.71l6.75-9h5l-8.35,10.57,9.09,11.56H826l-7.44-9.75Z"/><path class="cls-1" d="M849.61,57v-.46c0-3.9-2.06-5.22-4.77-5.22-3,0-4.65,1.52-4.82,4.24H835.7c.38-4.69,4.24-7.53,9.3-7.53,5.72,0,9,2.75,8.93,9.38,0,.53-.08,4.36-.08,5.3a41.4,41.4,0,0,0,.61,8h-4.11a18.08,18.08,0,0,1-.37-2.92c-1.32,2.22-3.83,3.46-7.41,3.46-4.48,0-7.89-2.47-7.89-6.5C834.68,59.32,841,57.88,849.61,57Zm-10.28,7.65c0,2,1.6,3.29,4.19,3.29,3.54,0,6.29-1.77,6.29-6.17V60.14C842.94,60.8,839.33,61.75,839.33,64.63Z"/><path class="cls-1" d="M865.2,61.87a6.39,6.39,0,0,1-4.4-6.33c0-4.53,3.09-7,8.35-7h9V70.67h-4.28V63h-4.4l-5.35,7.65H859Zm8.64-2.26V52h-4.36c-2.63,0-4.4,1.4-4.4,3.86,0,2.8,1.94,3.79,4.49,3.79Z"/><path class="cls-1" d="M912.85,70.67V52H902.32V70.67H898V48.54h19.09V70.67Z"/><path class="cls-1" d="M924,74.46h1.69c2.3,0,3.29-.17,4.36-3.33l.17-.5-8-22.09H927L932.35,65l5.23-16.5H942L934.2,71.17c-1.8,5.22-3.12,6.7-8.1,6.7H924Z"/><path class="cls-1" d="M956.34,71.21c-5.76,0-10.53-4.07-10.53-12.34V56.61c.08-8,3.29-13.13,11.68-14.65L965,40.64v3.71l-7.28,1.4c-4.69.9-7.61,2.92-8.23,8.39a8.38,8.38,0,0,1,7.65-4.32c5.1,0,9.5,3.54,9.5,10.49C966.62,67.42,961.85,71.21,956.34,71.21Zm.08-17.81c-3.25,0-6.12,2.22-6.12,7,0,4.52,2.55,7.28,6.08,7.28s5.76-2.63,5.76-7.24S959.63,53.4,956.42,53.4Z"/><path class="cls-1" d="M986.33,70.67V52h-6.86l-.21,4.15c-.45,9.3-2.39,14.56-8.15,14.56h-.78V67.26h.46c2.63,0,3.94-3.33,4.36-11.81l.33-6.91h15.13V70.67Z"/><path class="cls-1" d="M998.85,48.54H1003v16l10.82-16h4.2V70.67h-4.2v-16l-10.82,16h-4.19Z"/><path class="cls-1" d="M1038.75,61.91a27.12,27.12,0,0,1-6.41.87c-4.61,0-7.16-2.14-7.16-6.92V48.54h4.28V55c0,3.05,1.48,4.16,4.52,4.16a20.63,20.63,0,0,0,4.77-.7v-10H1043V70.67h-4.28Z"/><path class="cls-1" d="M1066.32,61.05h-10.78v9.62h-4.27V48.54h4.27v9.09h10.78V48.54h4.28V70.67h-4.28Z"/><path class="cls-1" d="M1092.24,57v-.46c0-3.9-2-5.22-4.77-5.22-3,0-4.65,1.52-4.81,4.24h-4.32c.37-4.69,4.24-7.53,9.3-7.53,5.71,0,9,2.75,8.92,9.38,0,.53-.08,4.36-.08,5.3a41.28,41.28,0,0,0,.62,8H1093a20.68,20.68,0,0,1-.37-2.92c-1.31,2.22-3.82,3.46-7.4,3.46-4.48,0-7.9-2.47-7.9-6.5C1077.31,59.32,1083.65,57.88,1092.24,57ZM1082,64.63c0,2,1.6,3.29,4.19,3.29,3.54,0,6.3-1.77,6.3-6.17V60.14C1085.58,60.8,1082,61.75,1082,64.63Z"/><path class="cls-1" d="M1107.84,61.87a6.37,6.37,0,0,1-4.4-6.33c0-4.53,3.08-7,8.35-7h9V70.67h-4.28V63h-4.4l-5.35,7.65h-5.1Zm8.64-2.26V52h-4.36c-2.63,0-4.4,1.4-4.4,3.86,0,2.8,1.93,3.79,4.48,3.79Z"/><path class="cls-1" d="M382.66,121.07c14.29,0,23,5.35,23,18.93,0,14.1-9.2,19.8-23.48,19.8H358.57V96.28h43v8.49h-33v16.3Zm12.88,19.1c0-8.06-4.82-10.86-13.4-10.86H368.56v22.25H382.4C390.81,151.56,395.54,147.44,395.54,140.17Z"/><path class="cls-1" d="M412.45,112.66h8.94v34.08l23-34.08h8.94V159.8h-8.94v-34l-23,34h-8.94Z"/><path class="cls-1" d="M484.23,160.94c-12.26,0-22.43-8.68-22.43-26.29v-4.82c.18-17,7-28,24.89-31.19l15.94-2.8v7.88l-15.51,3c-10,1.93-16.21,6.22-17.52,17.88,3.24-6.14,9.55-9.2,16.3-9.2,10.86,0,20.24,7.53,20.24,22.34C506.14,152.88,496,160.94,484.23,160.94Zm.18-37.94c-6.92,0-13.06,4.73-13.06,14.81,0,9.63,5.44,15.5,13,15.5,7.27,0,12.27-5.6,12.27-15.42S491.24,123,484.41,123Z"/><path class="cls-1" d="M542.29,159.8V119.93H527.65l-.44,8.85c-1,19.8-5.08,31-17.34,31H508.2v-7.27h1c5.6,0,8.41-7.1,9.28-25.15l.7-14.72H551.4V159.8Z"/><path class="cls-1" d="M561.61,112.66h8.94v34.08l23-34.08h8.94V159.8h-8.94v-34l-23,34h-8.94Z"/><path class="cls-1" d="M632.62,160.94c-11.13,0-22.87-7.54-22.87-24.54s11.74-24.62,22.87-24.62,23,7.54,23,24.62S643.84,160.94,632.62,160.94Zm13.32-24.54c0-11.74-6.4-16.9-13.32-16.9s-13.23,5-13.23,16.9c0,11.66,6.4,16.83,13.23,16.83S645.94,147.88,645.94,136.4Z"/><path class="cls-1" d="M682.8,159.8h-9.11V119.93H657v-7.27h42.32v7.27H682.8Z"/><path class="cls-1" d="M745.41,146c-2.2,7.79-9.2,15-21.21,15-15.24,0-23.48-11.13-23.48-24.8,0-14.63,9.81-24.36,23.22-24.36,14.54,0,23,11.92,22.08,27.25H710.1c.87,8.68,6.39,14.11,13.75,14.11,6.57,0,10.43-2.72,12.36-7.18Zm-8.85-14.11c-.27-7-5.17-12.62-12.71-12.62-7.1,0-12.35,3.68-13.58,12.62Z"/><path class="cls-1" d="M762.27,139V159.8h-9.11V112.66h9.11v19.1h5.78l14.37-19.1H793l-17.78,22.52L794.6,159.8h-11L767.79,139Z"/><path class="cls-1" d="M827.3,130.62v-1c0-8.33-4.38-11.13-10.17-11.13-6.31,0-9.9,3.24-10.25,9h-9.2c.79-10,9-16,19.8-16,12.18,0,19.19,5.87,19,20,0,1.14-.18,9.29-.18,11.3a87.52,87.52,0,0,0,1.32,17h-8.76a38.83,38.83,0,0,1-.79-6.22c-2.81,4.73-8.15,7.36-15.78,7.36-9.55,0-16.82-5.26-16.82-13.85C795.49,135.62,809,132.55,827.3,130.62Zm-21.91,16.3c0,4.29,3.42,7,8.94,7,7.54,0,13.41-3.77,13.41-13.14v-3.42C813.1,138.77,805.39,140.79,805.39,146.92Z"/><path class="cls-1" d="M865.67,112.66h8.94v34.08l23-34.08h8.94V159.8h-8.94v-34l-23,34h-8.94Z"/><path class="cls-1" d="M961.34,159.8V122.21L946.63,159.8h-6.84l-14.72-37.24V159.8h-8.76V112.66h13.58l13.58,35.05,13.06-35.05h13.58V159.8Z"/><path class="cls-1" d="M1021.46,146c-2.19,7.79-9.2,15-21.21,15-15.24,0-23.48-11.13-23.48-24.8,0-14.63,9.81-24.36,23.22-24.36,14.54,0,23,11.92,22.08,27.25H986.15c.87,8.68,6.39,14.11,13.75,14.11,6.57,0,10.43-2.72,12.36-7.18Zm-8.85-14.11c-.27-7-5.17-12.62-12.71-12.62-7.09,0-12.35,3.68-13.58,12.62Z"/><path class="cls-1" d="M1060.75,139.3h-23v20.5h-9.11V112.66h9.11V132h23V112.66h9.11V159.8h-9.11Z"/><path class="cls-1" d="M1079.55,112.66h8.94v34.08l23-34.08h8.94V159.8h-8.94v-34l-23,34h-8.94Z"/><path class="cls-1" d="M382.24,183.89c11.76,0,22.72,3.07,22.72,16,0,5.95-2.92,11.39-7.07,13.75,5.75,2.54,9.64,6.92,9.64,15.07,0,13.49-10.44,18.75-23.43,18.75H358.64V183.89Zm1.24,26.9c6.89,0,11.32-2.89,11.32-9.73,0-6-4.6-8.93-11.32-8.93H368.71v18.66Zm.88,28.39c8.58,0,12.82-3.77,12.82-10.52,0-7-4.24-10.16-13.35-10.16H368.71v20.68Z"/><path class="cls-1" d="M415.5,236.46h11.05v10.95H415.5Z"/><path class="cls-1" d="M482.87,183.89c11.76,0,22.72,3.07,22.72,16,0,5.95-2.92,11.39-7.07,13.75,5.74,2.54,9.63,6.92,9.63,15.07,0,13.49-10.43,18.75-23.42,18.75H459.26V183.89Zm1.24,26.9c6.89,0,11.31-2.89,11.31-9.73,0-6-4.59-8.93-11.31-8.93H469.34v18.66Zm.88,28.39c8.58,0,12.82-3.77,12.82-10.52,0-7-4.24-10.16-13.35-10.16H469.34v20.68Z"/><path class="cls-1" d="M516.13,236.46h11v10.95h-11Z"/><path class="cls-1" d="M569.79,194v53.44h-9.9V183.89h16.18l16,51.87,16-51.87h16.18v63.52h-9.9V194l-17.06,53.44H586.85Z"/><path class="cls-1" d="M666.91,218.24v-1c0-8.32-4.42-11.13-10.25-11.13-6.37,0-10,3.25-10.35,9H637c.79-10,9.1-16,20-16,12.29,0,19.36,5.87,19.18,20,0,1.14-.17,9.29-.17,11.3a87.45,87.45,0,0,0,1.32,17H668.5a40,40,0,0,1-.79-6.22c-2.83,4.73-8.23,7.36-15.92,7.36-9.63,0-17-5.26-17-13.84C634.82,223.23,648.43,220.16,666.91,218.24Zm-22.1,16.29c0,4.3,3.45,7,9,7,7.6,0,13.52-3.77,13.52-13.14V225C652.59,226.38,644.81,228.4,644.81,234.53Z"/><path class="cls-1" d="M697.62,228.66c-5.48-2-9.46-6.39-9.46-13.49,0-9.64,6.63-14.9,18-14.9h19.27v47.14h-9.19V231.12h-9.46l-11.5,16.29h-11Zm18.57-4.82V207.55h-9.37c-5.66,0-9.47,3-9.47,8.23,0,6,4.16,8.06,9.64,8.06Z"/><path class="cls-1" d="M747.7,226.65v20.76h-9.2V200.27h9.2v19.1h5.84L768,200.27h10.7l-18,22.52,19.54,24.62H769.27l-16-20.76Z"/><path class="cls-1" d="M805.32,248.55c-11.23,0-23.07-7.53-23.07-24.53s11.84-24.62,23.07-24.62,23.16,7.53,23.16,24.62S816.64,248.55,805.32,248.55ZM818.76,224c0-11.74-6.45-16.91-13.44-16.91S792,212.1,792,224c0,11.65,6.46,16.82,13.35,16.82S818.76,235.5,818.76,224Z"/><path class="cls-1" d="M877.79,212.37a10.43,10.43,0,0,1-6.45,10.16c4.77,1.4,8.4,4.73,8.4,10.95,0,10-7.78,13.93-18.21,13.93H838.72V200.27H860.2C869.93,200.27,877.79,202.73,877.79,212.37Zm-9.37,1.13c0-4.81-3.53-5.95-9.1-5.95H847.91v12.26h11.58C865,219.81,868.42,218.32,868.42,213.5Zm-8.22,26.64c6.63,0,10.08-2,10.08-6.83s-3.45-6.58-10.26-6.58H847.91v13.41Z"/><path class="cls-1" d="M921.1,216.22c-1-5.34-5.84-9-11.85-9-6.63,0-12.73,5.17-12.73,16.64,0,11.66,6.19,16.91,12.73,16.91,5.84,0,11-3.41,12.2-9h9.29c-1.86,9.9-11.14,16.82-21.66,16.82-13.71,0-22.37-10.43-22.37-24.62,0-14,8.93-24.53,23-24.53,10.88,0,19.19,7.62,20.6,16.82Z"/><path class="cls-1" d="M949.41,226.65v20.76h-9.19V200.27h9.19v19.1h5.84l14.49-19.1h10.7L962.5,222.79,982,247.41H971l-16-20.76Z"/><path class="cls-1" d="M1007,248.55C995.8,248.55,984,241,984,224S995.8,199.4,1007,199.4s23.16,7.53,23.16,24.62S1018.35,248.55,1007,248.55ZM1020.47,224c0-11.74-6.45-16.91-13.44-16.91s-13.35,5-13.35,16.91c0,11.65,6.46,16.82,13.35,16.82S1020.47,235.5,1020.47,224Z"/><path class="cls-1" d="M1049.62,247.41h-9.19V200.27h31.29v7.28h-22.1Z"/><path class="cls-1" d="M1098.92,248.55c-11.22,0-23.07-7.53-23.07-24.53s11.85-24.62,23.07-24.62,23.17,7.53,23.17,24.62S1110.24,248.55,1098.92,248.55ZM1112.36,224c0-11.74-6.45-16.91-13.44-16.91s-13.35,5-13.35,16.91c0,11.65,6.46,16.82,13.35,16.82S1112.36,235.5,1112.36,224Z"/></svg>