<?xml version="1.0" encoding="UTF-8" standalone="no"?>
<svg
   id="Слой_1"
   data-name="Слой 1"
   viewBox="0 0 1052.16 218.72"
   version="1.1"
   sodipodi:docname="лого и знак для сайта.svg"
   width="1052.16"
   height="218.72"
   inkscape:version="1.3 (0e150ed6c4, 2023-07-21)"
   xmlns:inkscape="http://www.inkscape.org/namespaces/inkscape"
   xmlns:sodipodi="http://sodipodi.sourceforge.net/DTD/sodipodi-0.dtd"
   xmlns="http://www.w3.org/2000/svg"
   xmlns:svg="http://www.w3.org/2000/svg">
  <sodipodi:namedview
     id="namedview62"
     pagecolor="#ffffff"
     bordercolor="#000000"
     borderopacity="0.25"
     inkscape:showpageshadow="2"
     inkscape:pageopacity="0.0"
     inkscape:pagecheckerboard="0"
     inkscape:deskcolor="#d1d1d1"
     inkscape:zoom="1.1691667"
     inkscape:cx="497.36279"
     inkscape:cy="157.8047"
     inkscape:window-width="1920"
     inkscape:window-height="1017"
     inkscape:window-x="-8"
     inkscape:window-y="-8"
     inkscape:window-maximized="1"
     inkscape:current-layer="layer1" />
  <defs
     id="defs1">
    <style
       id="style1">.cls-1{fill:#010101;}</style>
  </defs>
  <title
     id="title1">лого и знак для сайта</title>
  <g
     inkscape:groupmode="layer"
     id="layer1"
     inkscape:label="Layer 1"
     style="display:inline"
     transform="translate(-103,8)">
    <path
       class="cls-1"
       d="m 298.76,102.06 c 0,19 -16.43,34.15 -35.43,34.15 -10.12,0 -19,-3.79 -25.31,-11.39 -1.27,1.27 -2.51,2.54 -3.79,2.54 7.61,6.34 11.4,16.46 11.4,26.58 a 34.17,34.17 0 0 1 -68.34,0 c 0,-10.12 3.82,-20.24 11.39,-26.58 a 2.73,2.73 0 0 1 -2.54,-2.54 c -6.3,7.6 -16.43,11.39 -26.55,11.39 a 34,34 0 0 1 -34.18,-34.15 c 0,-19 15.21,-35.43 34.18,-35.43 a 35.48,35.48 0 0 1 26.55,12.67 c 0,-1.28 1.27,-2.55 2.54,-3.82 -7.57,-6.31 -11.39,-15.18 -11.39,-25.31 0,-19 15.18,-35.42 34.18,-35.42 19,0 34.16,16.45 34.16,35.42 0,10.13 -3.79,19 -11.4,25.31 1.28,1.27 2.52,2.54 3.79,3.82 6.34,-7.61 15.19,-12.67 25.31,-12.67 19,0 35.43,16.46 35.43,35.43 z"
       id="path1"
       style="fill:#010101" />
    <circle
       class="cls-1"
       cx="137.69"
       cy="26.809998"
       r="34.689999"
       id="circle1"
       style="fill:#010101" />
    <circle
       class="cls-1"
       cx="137.69"
       cy="176.03"
       r="34.689999"
       id="circle2"
       style="fill:#010101" />
    <circle
       class="cls-1"
       cx="286.48001"
       cy="26.809998"
       r="34.689999"
       id="circle3"
       style="fill:#010101" />
    <circle
       class="cls-1"
       cx="286.48001"
       cy="176.03"
       r="34.689999"
       id="circle4"
       style="fill:#010101" />
    <path
       class="cls-1"
       d="M 414.12,28.2 V 22.03 H 391.49 V -7.79 h 4.69 v 25.83 h 13.66 V -7.79 h 4.69 v 25.87 h 3.78 V 28.2 Z"
       id="path4"
       style="fill:#010101" />
    <path
       class="cls-1"
       d="m 443.95,15.53 c -1,3.67 -4.32,7 -10,7 -7.16,0 -11,-5.23 -11,-11.64 0,-6.87 4.61,-11.44 10.9,-11.44 6.83,0 10.82,5.6 10.36,12.79 h -16.84 c 0.41,4.08 3,6.63 6.46,6.63 3.08,0 4.89,-1.28 5.8,-3.38 z m -4.16,-6.62 a 5.85,5.85 0 0 0 -6,-5.92 c -3.33,0 -5.8,1.73 -6.38,5.92 z"
       id="path5"
       style="fill:#010101" />
    <path
       class="cls-1"
       d="m 465.8,12.41 h -10.73 v 9.62 h -4.28 V -0.1 h 4.28 v 9.09 h 10.78 V -0.1 h 4.22 v 22.13 h -4.27 z"
       id="path6"
       style="fill:#010101" />
    <path
       class="cls-1"
       d="m 487.93,22.03 h -4.28 V 3.36 h -7.81 V -0.1 h 19.87 v 3.46 h -7.78 z"
       id="path7"
       style="fill:#010101" />
    <path
       class="cls-1"
       d="m 505.54,3.15 a 7.61,7.61 0 0 1 6.92,-3.66 c 5.14,0 9.54,4.32 9.54,11.52 0,7.2 -4.4,11.56 -9.54,11.56 a 7.61,7.61 0 0 1 -6.92,-3.66 v 10.32 h -4.27 V -0.1 h 4.27 z m 11.89,7.86 c 0,-5 -2.42,-7.94 -6,-7.94 -3.29,0 -6.09,2.47 -6.09,7.94 0,5.47 2.8,8 6.09,8 3.58,-0.02 6,-3.02 6,-8 z"
       id="path8"
       style="fill:#010101" />
    <path
       class="cls-1"
       d="M 541.91,8.36 V 7.9 c 0,-3.9 -2,-5.22 -4.77,-5.22 -3,0 -4.65,1.52 -4.81,4.24 h -4.32 c 0.37,-4.69 4.24,-7.53 9.3,-7.53 5.71,0 9,2.75 8.92,9.38 0,0.53 -0.08,4.36 -0.08,5.3 a 41.28,41.28 0 0 0 0.62,8 h -4.12 a 20.68,20.68 0 0 1 -0.37,-2.92 c -1.31,2.22 -3.82,3.46 -7.4,3.46 -4.48,0 -7.9,-2.47 -7.9,-6.5 0,-5.43 6.34,-6.87 14.93,-7.75 z m -10.28,7.65 c 0,2 1.61,3.29 4.2,3.29 3.53,0 6.29,-1.77 6.29,-6.17 V 11.5 c -6.87,0.66 -10.49,1.61 -10.49,4.49 z"
       id="path9"
       style="fill:#010101" />
    <path
       class="cls-1"
       d="M 567.51,22.03 V 3.36 h -6.87 l -0.21,4.15 c -0.45,9.3 -2.38,14.56 -8.14,14.56 h -0.78 v -3.45 h 0.45 c 2.63,0 4,-3.33 4.36,-11.81 l 0.33,-6.91 h 15.14 v 22.13 z"
       id="path10"
       style="fill:#010101" />
    <path
       class="cls-1"
       d="m 597.79,14.63 c 0,5.55 -3.58,7.4 -8.85,7.4 h -8.87 V -0.1 h 4.28 v 7.65 h 5 c 5.81,0 8.44,2.72 8.44,7.08 z m -4.28,0 c 0,-2.72 -1.56,-3.66 -4.73,-3.66 h -4.48 v 7.65 h 4.52 c 3.13,0 4.69,-1.19 4.69,-3.99 z"
       id="path11"
       style="fill:#010101" />
    <path
       class="cls-1"
       d="m 619.23,12.41 h -10.78 v 9.62 h -4.28 V -0.1 h 4.28 v 9.09 h 10.78 V -0.1 h 4.27 v 22.13 h -4.27 z"
       id="path12"
       style="fill:#010101" />
    <path
       class="cls-1"
       d="M 645.15,8.36 V 7.9 c 0,-3.9 -2.06,-5.22 -4.77,-5.22 -3,0 -4.65,1.52 -4.82,4.24 h -4.32 c 0.37,-4.69 4.24,-7.53 9.3,-7.53 5.72,0 9,2.75 8.93,9.38 0,0.53 -0.08,4.36 -0.08,5.3 a 41.4,41.4 0 0 0 0.61,8 h -4.11 a 18.08,18.08 0 0 1 -0.37,-2.92 c -1.32,2.22 -3.83,3.46 -7.41,3.46 -4.48,0 -7.89,-2.47 -7.89,-6.5 0,-5.43 6.33,-6.87 14.93,-7.75 z m -10.28,7.63 c 0,2 1.6,3.29 4.19,3.29 3.54,0 6.29,-1.77 6.29,-6.17 V 11.5 c -6.87,0.66 -10.48,1.61 -10.48,4.49 z"
       id="path13"
       style="fill:#010101" />
    <path
       class="cls-1"
       d="m 660.74,13.23 a 6.37,6.37 0 0 1 -4.4,-6.33 c 0,-4.53 3.09,-7 8.35,-7 h 9 v 22.13 h -4.28 v -7.67 h -4.4 l -5.35,7.65 h -5.1 z m 8.64,-2.26 V 3.36 h -4.31 c -2.63,0 -4.4,1.4 -4.4,3.86 0,2.8 1.93,3.79 4.48,3.79 z"
       id="path14"
       style="fill:#010101" />
    <path
       class="cls-1"
       d="m 697.86,22.03 h -4.28 V -0.1 h 14.56 v 3.46 h -10.28 z"
       id="path15"
       style="fill:#010101" />
    <path
       class="cls-1"
       d="m 722.07,22.57 c -5.22,0 -10.74,-3.54 -10.74,-11.52 0,-7.98 5.5,-11.56 10.74,-11.56 5.24,0 10.78,3.54 10.78,11.56 0,8.02 -5.54,11.52 -10.78,11.52 z m 6.25,-11.52 c 0,-5.51 -3,-7.94 -6.25,-7.94 -3.25,0 -6.21,2.35 -6.21,7.94 0,5.59 3,7.9 6.21,7.9 3.21,0 6.23,-2.51 6.23,-7.9 z"
       id="path16"
       style="fill:#010101" />
    <path
       class="cls-1"
       d="m 743.45,3.15 a 7.58,7.58 0 0 1 6.91,-3.66 c 5.14,0 9.54,4.32 9.54,11.52 0,7.2 -4.4,11.56 -9.54,11.56 a 7.58,7.58 0 0 1 -6.91,-3.66 v 10.32 h -4.28 V -0.1 h 4.28 z m 11.88,7.86 c 0,-5 -2.42,-7.94 -6,-7.94 -3.29,0 -6.09,2.47 -6.09,7.94 0,5.47 2.8,8 6.09,8 3.58,-0.02 6,-3.02 6,-8 z"
       id="path17"
       style="fill:#010101" />
    <path
       class="cls-1"
       d="m 775.95,22.57 c -5.22,0 -10.74,-3.54 -10.74,-11.52 0,-7.98 5.52,-11.56 10.74,-11.56 5.22,0 10.78,3.54 10.78,11.56 0,8.02 -5.52,11.52 -10.78,11.52 z m 6.25,-11.52 c 0,-5.51 -3,-7.94 -6.25,-7.94 -3.25,0 -6.21,2.35 -6.21,7.94 0,5.59 3,7.9 6.21,7.9 3.21,0 6.25,-2.51 6.25,-7.9 z"
       id="path18"
       style="fill:#010101" />
    <path
       class="cls-1"
       d="M 810.07,27.3 V 22.03 H 794.3 v 5.27 h -4 v -8.68 h 1.07 c 2.26,0 3.33,-3.29 3.66,-11.64 l 0.29,-7.08 h 15.63 v 18.72 h 3.12 V 27.3 Z M 799.28,3.36 798.99,8.29 c -0.29,5.1 -1,8.56 -2.71,10.37 h 10.36 V 3.36 Z"
       id="path19"
       style="fill:#010101" />
    <path
       class="cls-1"
       d="m 834,7.36 a 5.35,5.35 0 0 0 -5.51,-4.24 c -3.08,0 -5.92,2.43 -5.92,7.82 0,5.39 2.88,7.94 5.92,7.94 a 5.58,5.58 0 0 0 5.68,-4.24 h 4.32 a 10.05,10.05 0 0 1 -10.08,7.9 c -6.38,0 -10.41,-4.9 -10.41,-11.56 0,-6.66 4.16,-11.52 10.7,-11.52 a 9.52,9.52 0 0 1 9.58,7.9 z"
       id="path20"
       style="fill:#010101" />
    <path
       class="cls-1"
       d="m 849.07,12.28 v 9.75 h -4.28 V -0.1 h 4.28 v 9 h 2.71 l 6.75,-9 h 5 l -8.35,10.57 9.09,11.56 h -5.2 l -7.44,-9.75 z"
       id="path21"
       style="fill:#010101" />
    <path
       class="cls-1"
       d="M 882.68,8.36 V 7.9 c 0,-3.9 -2.06,-5.22 -4.77,-5.22 -3,0 -4.65,1.52 -4.82,4.24 h -4.32 c 0.38,-4.69 4.24,-7.53 9.3,-7.53 5.72,0 9,2.75 8.93,9.38 0,0.53 -0.08,4.36 -0.08,5.3 a 41.4,41.4 0 0 0 0.61,8 h -4.11 a 18.08,18.08 0 0 1 -0.37,-2.92 c -1.32,2.22 -3.83,3.46 -7.41,3.46 -4.48,0 -7.89,-2.47 -7.89,-6.5 0,-5.43 6.32,-6.87 14.93,-7.75 z m -10.28,7.65 c 0,2 1.6,3.29 4.19,3.29 3.54,0 6.29,-1.77 6.29,-6.17 V 11.5 c -6.87,0.66 -10.48,1.61 -10.48,4.49 z"
       id="path22"
       style="fill:#010101" />
    <path
       class="cls-1"
       d="m 898.27,13.23 a 6.39,6.39 0 0 1 -4.4,-6.33 c 0,-4.53 3.09,-7 8.35,-7 h 9 v 22.13 h -4.28 v -7.67 h -4.4 l -5.35,7.65 h -5.12 z m 8.64,-2.26 V 3.36 h -4.36 c -2.63,0 -4.4,1.4 -4.4,3.86 0,2.8 1.94,3.79 4.49,3.79 z"
       id="path23"
       style="fill:#010101" />
    <path
       class="cls-1"
       d="M 945.92,22.03 V 3.36 h -10.53 v 18.67 h -4.32 V -0.1 h 19.09 v 22.13 z"
       id="path24"
       style="fill:#010101" />
    <path
       class="cls-1"
       d="m 957.07,25.82 h 1.69 c 2.3,0 3.29,-0.17 4.36,-3.33 l 0.17,-0.5 -8,-22.09 h 4.78 l 5.35,16.46 5.23,-16.5 h 4.42 l -7.8,22.67 c -1.8,5.22 -3.12,6.7 -8.1,6.7 h -2.1 z"
       id="path25"
       style="fill:#010101" />
    <path
       class="cls-1"
       d="m 989.41,22.57 c -5.76,0 -10.53,-4.07 -10.53,-12.34 V 7.97 c 0.08,-8 3.29,-13.13 11.68,-14.65 L 998.07,-8 v 3.71 l -7.28,1.4 c -4.69,0.9 -7.61,2.92 -8.23,8.39 a 8.38,8.38 0 0 1 7.65,-4.32 c 5.1,0 9.5,3.54 9.5,10.49 -0.02,7.11 -4.79,10.9 -10.3,10.9 z m 0.08,-17.81 c -3.25,0 -6.12,2.22 -6.12,7 0,4.52 2.55,7.28 6.08,7.28 3.53,0 5.76,-2.63 5.76,-7.24 0,-4.61 -2.51,-7.04 -5.72,-7.04 z"
       id="path26"
       style="fill:#010101" />
    <path
       class="cls-1"
       d="M 1019.4,22.03 V 3.36 h -6.86 l -0.21,4.15 c -0.45,9.3 -2.39,14.56 -8.15,14.56 h -0.78 v -3.45 h 0.46 c 2.63,0 3.94,-3.33 4.36,-11.81 l 0.33,-6.91 h 15.13 v 22.13 z"
       id="path27"
       style="fill:#010101" />
    <path
       class="cls-1"
       d="m 1031.92,-0.1 h 4.15 v 16 l 10.82,-16 h 4.2 v 22.13 h -4.2 v -16 l -10.82,16 h -4.19 z"
       id="path28"
       style="fill:#010101" />
    <path
       class="cls-1"
       d="m 1071.82,13.27 a 27.12,27.12 0 0 1 -6.41,0.87 c -4.61,0 -7.16,-2.14 -7.16,-6.92 V -0.1 h 4.28 v 6.46 c 0,3.05 1.48,4.16 4.52,4.16 a 20.63,20.63 0 0 0 4.77,-0.7 v -10 h 4.25 v 22.21 h -4.28 z"
       id="path29"
       style="fill:#010101" />
    <path
       class="cls-1"
       d="m 1099.39,12.41 h -10.78 v 9.62 h -4.27 V -0.1 h 4.27 v 9.09 h 10.78 V -0.1 h 4.28 v 22.13 h -4.28 z"
       id="path30"
       style="fill:#010101" />
    <path
       class="cls-1"
       d="M 1125.31,8.36 V 7.9 c 0,-3.9 -2,-5.22 -4.77,-5.22 -3,0 -4.65,1.52 -4.81,4.24 h -4.32 c 0.37,-4.69 4.24,-7.53 9.3,-7.53 5.71,0 9,2.75 8.92,9.38 0,0.53 -0.08,4.36 -0.08,5.3 a 41.28,41.28 0 0 0 0.62,8 h -4.1 a 20.68,20.68 0 0 1 -0.37,-2.92 c -1.31,2.22 -3.82,3.46 -7.4,3.46 -4.48,0 -7.9,-2.47 -7.9,-6.5 -0.02,-5.43 6.32,-6.87 14.91,-7.75 z m -10.24,7.63 c 0,2 1.6,3.29 4.19,3.29 3.54,0 6.3,-1.77 6.3,-6.17 V 11.5 c -6.91,0.66 -10.49,1.61 -10.49,4.49 z"
       id="path31"
       style="fill:#010101" />
    <path
       class="cls-1"
       d="m 1140.91,13.23 a 6.37,6.37 0 0 1 -4.4,-6.33 c 0,-4.53 3.08,-7 8.35,-7 h 9 v 22.13 h -4.28 v -7.67 h -4.4 l -5.35,7.65 h -5.1 z m 8.64,-2.26 V 3.36 h -4.36 c -2.63,0 -4.4,1.4 -4.4,3.86 0,2.8 1.93,3.79 4.48,3.79 z"
       id="path32"
       style="fill:#010101" />
    <path
       class="cls-1"
       d="m 415.73,72.43 c 14.29,0 23,5.35 23,18.93 0,14.1 -9.2,19.8 -23.48,19.8 H 391.64 V 47.64 h 43 v 8.49 h -33 v 16.3 z m 12.88,19.1 c 0,-8.06 -4.82,-10.86 -13.4,-10.86 h -13.58 v 22.25 h 13.84 c 8.41,0 13.14,-4.12 13.14,-11.39 z"
       id="path33"
       style="fill:#010101" />
    <path
       class="cls-1"
       d="m 445.52,64.02 h 8.94 V 98.1 l 23,-34.08 h 8.94 v 47.14 h -8.94 v -34 l -23,34 h -8.94 z"
       id="path34"
       style="fill:#010101" />
    <path
       class="cls-1"
       d="m 517.3,112.3 c -12.26,0 -22.43,-8.68 -22.43,-26.29 v -4.82 c 0.18,-17 7,-28 24.89,-31.19 l 15.94,-2.8 v 7.88 l -15.51,3 c -10,1.93 -16.21,6.22 -17.52,17.88 3.24,-6.14 9.55,-9.2 16.3,-9.2 10.86,0 20.24,7.53 20.24,22.34 0,15.14 -10.14,23.2 -21.91,23.2 z m 0.18,-37.94 c -6.92,0 -13.06,4.73 -13.06,14.81 0,9.63 5.44,15.5 13,15.5 7.27,0 12.27,-5.6 12.27,-15.42 0,-9.82 -5.38,-14.89 -12.21,-14.89 z"
       id="path35"
       style="fill:#010101" />
    <path
       class="cls-1"
       d="M 575.36,111.16 V 71.29 h -14.64 l -0.44,8.85 c -1,19.8 -5.08,31 -17.34,31 h -1.67 v -7.27 h 1 c 5.6,0 8.41,-7.1 9.28,-25.15 L 552.25,64 h 32.22 v 47.16 z"
       id="path36"
       style="fill:#010101" />
    <path
       class="cls-1"
       d="m 594.68,64.02 h 8.94 V 98.1 l 23,-34.08 h 8.94 v 47.14 h -8.94 v -34 l -23,34 h -8.94 z"
       id="path37"
       style="fill:#010101" />
    <path
       class="cls-1"
       d="m 665.69,112.3 c -11.13,0 -22.87,-7.54 -22.87,-24.54 0,-17 11.74,-24.62 22.87,-24.62 11.13,0 23,7.54 23,24.62 0,17.08 -11.78,24.54 -23,24.54 z m 13.32,-24.54 c 0,-11.74 -6.4,-16.9 -13.32,-16.9 -6.92,0 -13.23,5 -13.23,16.9 0,11.66 6.4,16.83 13.23,16.83 6.83,0 13.32,-5.35 13.32,-16.83 z"
       id="path38"
       style="fill:#010101" />
    <path
       class="cls-1"
       d="m 715.87,111.16 h -9.11 V 71.29 h -16.69 v -7.27 h 42.32 v 7.27 h -16.52 z"
       id="path39"
       style="fill:#010101" />
    <path
       class="cls-1"
       d="m 778.48,97.36 c -2.2,7.79 -9.2,15 -21.21,15 -15.24,0 -23.48,-11.13 -23.48,-24.8 0,-14.63 9.81,-24.36 23.22,-24.36 14.54,0 23,11.92 22.08,27.25 h -35.92 c 0.87,8.68 6.39,14.11 13.75,14.11 6.57,0 10.43,-2.72 12.36,-7.18 z m -8.85,-14.11 c -0.27,-7 -5.17,-12.62 -12.71,-12.62 -7.1,0 -12.35,3.68 -13.58,12.62 z"
       id="path40"
       style="fill:#010101" />
    <path
       class="cls-1"
       d="m 795.34,90.36 v 20.8 h -9.11 V 64.02 h 9.11 v 19.1 h 5.78 l 14.37,-19.1 h 10.58 l -17.78,22.52 19.38,24.62 h -11 l -15.81,-20.8 z"
       id="path41"
       style="fill:#010101" />
    <path
       class="cls-1"
       d="m 860.37,81.98 v -1 c 0,-8.33 -4.38,-11.13 -10.17,-11.13 -6.31,0 -9.9,3.24 -10.25,9 h -9.2 c 0.79,-10 9,-16 19.8,-16 12.18,0 19.19,5.87 19,20 0,1.14 -0.18,9.29 -0.18,11.3 a 87.52,87.52 0 0 0 1.32,17 h -8.76 a 38.83,38.83 0 0 1 -0.79,-6.22 c -2.81,4.73 -8.15,7.36 -15.78,7.36 -9.55,0 -16.82,-5.26 -16.82,-13.85 0.02,-11.46 13.53,-14.53 31.83,-16.46 z m -21.91,16.3 c 0,4.29 3.42,7 8.94,7 7.54,0 13.41,-3.77 13.41,-13.14 v -3.42 c -14.64,1.41 -22.35,3.43 -22.35,9.56 z"
       id="path42"
       style="fill:#010101" />
    <path
       class="cls-1"
       d="m 898.74,64.02 h 8.94 V 98.1 l 23,-34.08 h 8.94 v 47.14 h -8.94 v -34 l -23,34 h -8.94 z"
       id="path43"
       style="fill:#010101" />
    <path
       class="cls-1"
       d="M 994.41,111.16 V 73.57 l -14.71,37.59 h -6.84 L 958.14,73.92 v 37.24 h -8.76 V 64.02 h 13.58 l 13.58,35.05 13.06,-35.05 h 13.58 v 47.14 z"
       id="path44"
       style="fill:#010101" />
    <path
       class="cls-1"
       d="m 1054.53,97.36 c -2.19,7.79 -9.2,15 -21.21,15 -15.24,0 -23.48,-11.13 -23.48,-24.8 0,-14.63 9.81,-24.36 23.22,-24.36 14.54,0 23,11.92 22.08,27.25 h -35.92 c 0.87,8.68 6.39,14.11 13.75,14.11 6.57,0 10.43,-2.72 12.36,-7.18 z m -8.85,-14.11 c -0.27,-7 -5.17,-12.62 -12.71,-12.62 -7.09,0 -12.35,3.68 -13.58,12.62 z"
       id="path45"
       style="fill:#010101" />
    <path
       class="cls-1"
       d="m 1093.82,90.66 h -23 v 20.5 h -9.11 V 64.02 h 9.11 v 19.34 h 23 V 64.02 h 9.11 v 47.14 h -9.11 z"
       id="path46"
       style="fill:#010101" />
    <path
       class="cls-1"
       d="m 1112.62,64.02 h 8.94 V 98.1 l 23,-34.08 h 8.94 v 47.14 h -8.94 v -34 l -23,34 h -8.94 z"
       id="path47"
       style="fill:#010101" />
    <path
       class="cls-1"
       d="m 415.31,135.25 c 11.76,0 22.72,3.07 22.72,16 0,5.95 -2.92,11.39 -7.07,13.75 5.75,2.54 9.64,6.92 9.64,15.07 0,13.49 -10.44,18.75 -23.43,18.75 h -25.46 v -63.57 z m 1.24,26.9 c 6.89,0 11.32,-2.89 11.32,-9.73 0,-6 -4.6,-8.93 -11.32,-8.93 h -14.77 v 18.66 z m 0.88,28.39 c 8.58,0 12.82,-3.77 12.82,-10.52 0,-7 -4.24,-10.16 -13.35,-10.16 h -15.12 v 20.68 z"
       id="path48"
       style="fill:#010101" />
    <path
       class="cls-1"
       d="m 448.57,187.82 h 11.05 v 10.95 h -11.05 z"
       id="path49"
       style="fill:#010101" />
    <path
       class="cls-1"
       d="m 515.94,135.25 c 11.76,0 22.72,3.07 22.72,16 0,5.95 -2.92,11.39 -7.07,13.75 5.74,2.54 9.63,6.92 9.63,15.07 0,13.49 -10.43,18.75 -23.42,18.75 h -25.47 v -63.57 z m 1.24,26.9 c 6.89,0 11.31,-2.89 11.31,-9.73 0,-6 -4.59,-8.93 -11.31,-8.93 h -14.77 v 18.66 z m 0.88,28.39 c 8.58,0 12.82,-3.77 12.82,-10.52 0,-7 -4.24,-10.16 -13.35,-10.16 h -15.12 v 20.68 z"
       id="path50"
       style="fill:#010101" />
    <path
       class="cls-1"
       d="m 549.2,187.82 h 11 v 10.95 h -11 z"
       id="path51"
       style="fill:#010101" />
    <path
       class="cls-1"
       d="m 602.86,145.36 v 53.44 h -9.9 v -63.55 h 16.18 l 16,51.87 16,-51.87 h 16.18 v 63.52 h -9.9 v -53.41 l -17.06,53.44 h -10.44 z"
       id="path52"
       style="fill:#010101" />
    <path
       class="cls-1"
       d="m 699.98,169.6 v -1 c 0,-8.32 -4.42,-11.13 -10.25,-11.13 -6.37,0 -10,3.25 -10.35,9 h -9.31 c 0.79,-10 9.1,-16 20,-16 12.29,0 19.36,5.87 19.18,20 0,1.14 -0.17,9.29 -0.17,11.3 a 87.45,87.45 0 0 0 1.32,17 h -8.83 a 40,40 0 0 1 -0.79,-6.22 c -2.83,4.73 -8.23,7.36 -15.92,7.36 -9.63,0 -17,-5.26 -17,-13.84 0.03,-11.48 13.64,-14.55 32.12,-16.47 z m -22.1,16.29 c 0,4.3 3.45,7 9,7 7.6,0 13.52,-3.77 13.52,-13.14 v -3.39 c -14.74,1.38 -22.52,3.4 -22.52,9.53 z"
       id="path53"
       style="fill:#010101" />
    <path
       class="cls-1"
       d="m 730.69,180.02 c -5.48,-2 -9.46,-6.39 -9.46,-13.49 0,-9.64 6.63,-14.9 18,-14.9 h 19.27 v 47.14 h -9.19 v -16.29 h -9.46 l -11.5,16.29 h -11 z m 18.57,-4.82 v -16.29 h -9.37 c -5.66,0 -9.47,3 -9.47,8.23 0,6 4.16,8.06 9.64,8.06 z"
       id="path54"
       style="fill:#010101" />
    <path
       class="cls-1"
       d="m 780.77,178.01 v 20.76 h -9.2 v -47.14 h 9.2 v 19.1 h 5.84 l 14.46,-19.1 h 10.7 l -18,22.52 19.54,24.62 h -10.97 l -16,-20.76 z"
       id="path55"
       style="fill:#010101" />
    <path
       class="cls-1"
       d="m 838.39,199.91 c -11.23,0 -23.07,-7.53 -23.07,-24.53 0,-17 11.84,-24.62 23.07,-24.62 11.23,0 23.16,7.53 23.16,24.62 0,17.09 -11.84,24.53 -23.16,24.53 z m 13.44,-24.55 c 0,-11.74 -6.45,-16.91 -13.44,-16.91 -6.99,0 -13.32,5.01 -13.32,16.91 0,11.65 6.46,16.82 13.35,16.82 6.89,0 13.41,-5.32 13.41,-16.82 z"
       id="path56"
       style="fill:#010101" />
    <path
       class="cls-1"
       d="m 910.86,163.73 a 10.43,10.43 0 0 1 -6.45,10.16 c 4.77,1.4 8.4,4.73 8.4,10.95 0,10 -7.78,13.93 -18.21,13.93 h -22.81 v -47.14 h 21.48 c 9.73,0 17.59,2.46 17.59,12.1 z m -9.37,1.13 c 0,-4.81 -3.53,-5.95 -9.1,-5.95 h -11.41 v 12.26 h 11.58 c 5.51,0 8.93,-1.49 8.93,-6.31 z m -8.22,26.64 c 6.63,0 10.08,-2 10.08,-6.83 0,-4.83 -3.45,-6.58 -10.26,-6.58 h -12.11 v 13.41 z"
       id="path57"
       style="fill:#010101" />
    <path
       class="cls-1"
       d="m 954.17,167.58 c -1,-5.34 -5.84,-9 -11.85,-9 -6.63,0 -12.73,5.17 -12.73,16.64 0,11.66 6.19,16.91 12.73,16.91 5.84,0 11,-3.41 12.2,-9 h 9.29 c -1.86,9.9 -11.14,16.82 -21.66,16.82 -13.71,0 -22.37,-10.43 -22.37,-24.62 0,-14 8.93,-24.53 23,-24.53 10.88,0 19.19,7.62 20.6,16.82 z"
       id="path58"
       style="fill:#010101" />
    <path
       class="cls-1"
       d="m 982.48,178.01 v 20.76 h -9.19 v -47.14 h 9.19 v 19.1 h 5.84 l 14.49,-19.1 h 10.7 l -17.94,22.52 19.5,24.62 h -11 l -16,-20.76 z"
       id="path59"
       style="fill:#010101" />
    <path
       class="cls-1"
       d="m 1040.07,199.91 c -11.2,0 -23,-7.55 -23,-24.55 0,-17 11.8,-24.6 23,-24.6 11.2,0 23.16,7.53 23.16,24.62 0,17.09 -11.81,24.53 -23.16,24.53 z m 13.47,-24.55 c 0,-11.74 -6.45,-16.91 -13.44,-16.91 -6.99,0 -13.35,5 -13.35,16.91 0,11.65 6.46,16.82 13.35,16.82 6.89,0 13.44,-5.32 13.44,-16.82 z"
       id="path60"
       style="fill:#010101" />
    <path
       class="cls-1"
       d="m 1082.69,198.77 h -9.19 v -47.14 h 31.29 v 7.28 h -22.1 z"
       id="path61"
       style="fill:#010101" />
    <path
       class="cls-1"
       d="m 1131.99,199.91 c -11.22,0 -23.07,-7.53 -23.07,-24.53 0,-17 11.85,-24.62 23.07,-24.62 11.22,0 23.17,7.53 23.17,24.62 0,17.09 -11.85,24.53 -23.17,24.53 z m 13.44,-24.55 c 0,-11.74 -6.45,-16.91 -13.44,-16.91 -6.99,0 -13.35,5 -13.35,16.91 0,11.65 6.46,16.82 13.35,16.82 6.89,0 13.44,-5.32 13.44,-16.82 z"
       id="path62"
       style="fill:#010101" />
  </g>
</svg>
